<mxfile host="app.diagrams.net" agent="Mozilla/5.0 (Windows NT 10.0; Win64; x64) AppleWebKit/537.36 (KHTML, like Gecko) Chrome/134.0.0.0 Safari/537.36" version="26.1.0">
  <diagram name="Página-1" id="9zTzytnLhNofgRiRMjLE">
    <mxGraphModel dx="9596" dy="5096" grid="0" gridSize="10" guides="1" tooltips="1" connect="1" arrows="1" fold="1" page="0" pageScale="1" pageWidth="1169" pageHeight="827" math="0" shadow="0">
      <root>
        <mxCell id="0" />
        <mxCell id="1" parent="0" />
        <mxCell id="K7wMDh7OH1HqQqZJAVD5-414" value="" style="rounded=0;whiteSpace=wrap;html=1;sketch=1;hachureGap=4;jiggle=2;curveFitting=1;fontFamily=Architects Daughter;fontSource=https%3A%2F%2Ffonts.googleapis.com%2Fcss%3Ffamily%3DArchitects%2BDaughter;" vertex="1" parent="1">
          <mxGeometry x="1315.58" y="417" width="353" height="248" as="geometry" />
        </mxCell>
        <mxCell id="K7wMDh7OH1HqQqZJAVD5-21" value="" style="whiteSpace=wrap;html=1;sketch=1;hachureGap=4;jiggle=2;curveFitting=1;fontFamily=Architects Daughter;fontSource=https%3A%2F%2Ffonts.googleapis.com%2Fcss%3Ffamily%3DArchitects%2BDaughter;" vertex="1" parent="1">
          <mxGeometry x="-1044" y="-262" width="728.5" height="446" as="geometry" />
        </mxCell>
        <mxCell id="K7wMDh7OH1HqQqZJAVD5-19" value="" style="rounded=0;whiteSpace=wrap;html=1;sketch=1;hachureGap=4;jiggle=2;curveFitting=1;fontFamily=Architects Daughter;fontSource=https%3A%2F%2Ffonts.googleapis.com%2Fcss%3Ffamily%3DArchitects%2BDaughter;" vertex="1" parent="1">
          <mxGeometry x="-964" y="-206" width="549.5" height="347" as="geometry" />
        </mxCell>
        <mxCell id="K7wMDh7OH1HqQqZJAVD5-16" value="" style="rounded=0;whiteSpace=wrap;html=1;sketch=1;hachureGap=4;jiggle=2;curveFitting=1;fontFamily=Architects Daughter;fontSource=https%3A%2F%2Ffonts.googleapis.com%2Fcss%3Ffamily%3DArchitects%2BDaughter;" vertex="1" parent="1">
          <mxGeometry x="-846" y="-146" width="289" height="264" as="geometry" />
        </mxCell>
        <mxCell id="K7wMDh7OH1HqQqZJAVD5-13" value="" style="rounded=0;whiteSpace=wrap;html=1;sketch=1;hachureGap=4;jiggle=2;curveFitting=1;fontFamily=Architects Daughter;fontSource=https%3A%2F%2Ffonts.googleapis.com%2Fcss%3Ffamily%3DArchitects%2BDaughter;" vertex="1" parent="1">
          <mxGeometry x="-803" y="-98.85" width="221" height="175" as="geometry" />
        </mxCell>
        <mxCell id="K7wMDh7OH1HqQqZJAVD5-14" value="valor" style="text;strokeColor=default;align=center;fillColor=none;html=1;verticalAlign=middle;whiteSpace=wrap;rounded=0;fontSize=30;fontFamily=Architects Daughter;fontSource=https%3A%2F%2Ffonts.googleapis.com%2Fcss%3Ffamily%3DArchitects%2BDaughter;" vertex="1" parent="1">
          <mxGeometry x="-747" y="-23" width="109" height="79" as="geometry" />
        </mxCell>
        <mxCell id="K7wMDh7OH1HqQqZJAVD5-15" value="Variável" style="text;strokeColor=none;align=center;fillColor=none;html=1;verticalAlign=middle;whiteSpace=wrap;rounded=0;fontSize=30;fontFamily=Architects Daughter;fontSource=https%3A%2F%2Ffonts.googleapis.com%2Fcss%3Ffamily%3DArchitects%2BDaughter;" vertex="1" parent="1">
          <mxGeometry x="-761" y="-68" width="137" height="30" as="geometry" />
        </mxCell>
        <mxCell id="K7wMDh7OH1HqQqZJAVD5-17" value="Tipo de Dado" style="text;strokeColor=none;align=center;fillColor=none;html=1;verticalAlign=middle;whiteSpace=wrap;rounded=0;fontSize=20;fontFamily=Architects Daughter;fontSource=https%3A%2F%2Ffonts.googleapis.com%2Fcss%3Ffamily%3DArchitects%2BDaughter;" vertex="1" parent="1">
          <mxGeometry x="-756" y="-130" width="127" height="30" as="geometry" />
        </mxCell>
        <mxCell id="K7wMDh7OH1HqQqZJAVD5-20" value="Método Main" style="text;strokeColor=none;align=center;fillColor=none;html=1;verticalAlign=middle;whiteSpace=wrap;rounded=0;fontSize=20;fontFamily=Architects Daughter;fontSource=https%3A%2F%2Ffonts.googleapis.com%2Fcss%3Ffamily%3DArchitects%2BDaughter;" vertex="1" parent="1">
          <mxGeometry x="-753.29" y="-194" width="121.59" height="30" as="geometry" />
        </mxCell>
        <mxCell id="K7wMDh7OH1HqQqZJAVD5-22" value="Classe Main" style="text;strokeColor=none;align=center;fillColor=none;html=1;verticalAlign=middle;whiteSpace=wrap;rounded=0;fontSize=20;fontFamily=Architects Daughter;fontSource=https%3A%2F%2Ffonts.googleapis.com%2Fcss%3Ffamily%3DArchitects%2BDaughter;" vertex="1" parent="1">
          <mxGeometry x="-741.92" y="-250" width="124.33" height="30" as="geometry" />
        </mxCell>
        <mxCell id="K7wMDh7OH1HqQqZJAVD5-24" style="edgeStyle=none;curved=1;rounded=0;sketch=1;hachureGap=4;jiggle=2;curveFitting=1;orthogonalLoop=1;jettySize=auto;html=1;exitX=0.25;exitY=0;exitDx=0;exitDy=0;entryX=0.5;entryY=0;entryDx=0;entryDy=0;fontFamily=Architects Daughter;fontSource=https%3A%2F%2Ffonts.googleapis.com%2Fcss%3Ffamily%3DArchitects%2BDaughter;fontSize=16;startSize=14;endArrow=open;endSize=14;sourcePerimeterSpacing=8;targetPerimeterSpacing=8;" edge="1" parent="1" source="K7wMDh7OH1HqQqZJAVD5-23" target="K7wMDh7OH1HqQqZJAVD5-22">
          <mxGeometry relative="1" as="geometry">
            <Array as="points">
              <mxPoint x="-246" y="-522" />
            </Array>
          </mxGeometry>
        </mxCell>
        <mxCell id="K7wMDh7OH1HqQqZJAVD5-25" style="edgeStyle=none;curved=1;rounded=0;sketch=1;hachureGap=4;jiggle=2;curveFitting=1;orthogonalLoop=1;jettySize=auto;html=1;exitX=0.001;exitY=0.34;exitDx=0;exitDy=0;entryX=1;entryY=0.5;entryDx=0;entryDy=0;fontFamily=Architects Daughter;fontSource=https%3A%2F%2Ffonts.googleapis.com%2Fcss%3Ffamily%3DArchitects%2BDaughter;fontSize=16;startSize=14;endArrow=open;endSize=14;sourcePerimeterSpacing=8;targetPerimeterSpacing=8;exitPerimeter=0;" edge="1" parent="1" source="K7wMDh7OH1HqQqZJAVD5-23" target="K7wMDh7OH1HqQqZJAVD5-20">
          <mxGeometry relative="1" as="geometry" />
        </mxCell>
        <mxCell id="K7wMDh7OH1HqQqZJAVD5-28" style="edgeStyle=none;curved=1;rounded=0;sketch=1;hachureGap=4;jiggle=2;curveFitting=1;orthogonalLoop=1;jettySize=auto;html=1;fontFamily=Architects Daughter;fontSource=https%3A%2F%2Ffonts.googleapis.com%2Fcss%3Ffamily%3DArchitects%2BDaughter;fontSize=16;startSize=14;endArrow=open;endSize=14;sourcePerimeterSpacing=8;targetPerimeterSpacing=8;entryX=1;entryY=0.5;entryDx=0;entryDy=0;exitX=0;exitY=0.5;exitDx=0;exitDy=0;" edge="1" parent="1" source="K7wMDh7OH1HqQqZJAVD5-30" target="K7wMDh7OH1HqQqZJAVD5-17">
          <mxGeometry relative="1" as="geometry">
            <Array as="points">
              <mxPoint x="-217" y="-51" />
            </Array>
          </mxGeometry>
        </mxCell>
        <UserObject label="public class Main {&lt;div&gt;&lt;br&gt;public static void Main(String [] args) {&lt;div&gt;&lt;br&gt;&lt;/div&gt;&lt;div&gt;&lt;br&gt;&lt;/div&gt;&lt;div&gt;&lt;br&gt;&lt;/div&gt;&lt;div&gt;}&lt;/div&gt;&lt;/div&gt;" id="K7wMDh7OH1HqQqZJAVD5-23">
          <mxCell style="text;whiteSpace=wrap;html=1;fontFamily=Architects Daughter;fontSource=https%3A%2F%2Ffonts.googleapis.com%2Fcss%3Ffamily%3DArchitects%2BDaughter;fontSize=40;" vertex="1" parent="1">
            <mxGeometry x="-113" y="-216.5" width="772" height="355" as="geometry" />
          </mxCell>
        </UserObject>
        <mxCell id="K7wMDh7OH1HqQqZJAVD5-31" style="edgeStyle=none;curved=1;rounded=0;sketch=1;hachureGap=4;jiggle=2;curveFitting=1;orthogonalLoop=1;jettySize=auto;html=1;exitX=0.75;exitY=1;exitDx=0;exitDy=0;entryX=1;entryY=0.75;entryDx=0;entryDy=0;fontFamily=Architects Daughter;fontSource=https%3A%2F%2Ffonts.googleapis.com%2Fcss%3Ffamily%3DArchitects%2BDaughter;fontSize=16;startSize=14;endArrow=open;endSize=14;sourcePerimeterSpacing=8;targetPerimeterSpacing=8;" edge="1" parent="1" source="K7wMDh7OH1HqQqZJAVD5-30" target="K7wMDh7OH1HqQqZJAVD5-14">
          <mxGeometry relative="1" as="geometry">
            <Array as="points">
              <mxPoint x="-50" y="292" />
            </Array>
          </mxGeometry>
        </mxCell>
        <mxCell id="K7wMDh7OH1HqQqZJAVD5-32" style="edgeStyle=none;curved=1;rounded=0;sketch=1;hachureGap=4;jiggle=2;curveFitting=1;orthogonalLoop=1;jettySize=auto;html=1;exitX=0.5;exitY=1;exitDx=0;exitDy=0;entryX=1;entryY=0.5;entryDx=0;entryDy=0;fontFamily=Architects Daughter;fontSource=https%3A%2F%2Ffonts.googleapis.com%2Fcss%3Ffamily%3DArchitects%2BDaughter;fontSize=16;startSize=14;endArrow=open;endSize=14;sourcePerimeterSpacing=8;targetPerimeterSpacing=8;" edge="1" parent="1" source="K7wMDh7OH1HqQqZJAVD5-30" target="K7wMDh7OH1HqQqZJAVD5-15">
          <mxGeometry relative="1" as="geometry">
            <Array as="points">
              <mxPoint x="225" y="46" />
              <mxPoint x="10" y="27" />
              <mxPoint x="-228" y="32" />
            </Array>
          </mxGeometry>
        </mxCell>
        <mxCell id="K7wMDh7OH1HqQqZJAVD5-30" value="&lt;div style=&quot;forced-color-adjust: none; box-shadow: none !important;&quot;&gt;String nome = &quot;João&quot;;&lt;br style=&quot;forced-color-adjust: none; box-shadow: none !important;&quot;&gt;&lt;/div&gt;&lt;div style=&quot;forced-color-adjust: none; box-shadow: none !important;&quot;&gt;&lt;br style=&quot;forced-color-adjust: none; color: rgb(255, 255, 255); font-family: &amp;quot;Architects Daughter&amp;quot;; font-style: normal; font-variant-ligatures: normal; font-variant-caps: normal; font-weight: 400; letter-spacing: normal; orphans: 2; text-align: left; text-indent: 0px; text-transform: none; widows: 2; word-spacing: 0px; -webkit-text-stroke-width: 0px; white-space: normal; background-color: rgb(18, 18, 18); text-decoration-thickness: initial; text-decoration-style: initial; text-decoration-color: initial; box-shadow: none !important;&quot;&gt;&lt;br&gt;&lt;br&gt;&lt;/div&gt;" style="text;whiteSpace=wrap;html=1;fontFamily=Architects Daughter;fontSource=https%3A%2F%2Ffonts.googleapis.com%2Fcss%3Ffamily%3DArchitects%2BDaughter;fontSize=40;" vertex="1" parent="1">
          <mxGeometry x="-18" y="-43" width="392" height="63.31" as="geometry" />
        </mxCell>
        <mxCell id="K7wMDh7OH1HqQqZJAVD5-368" value="Memóra" style="shape=table;startSize=30;container=1;collapsible=0;childLayout=tableLayout;sketch=1;hachureGap=4;jiggle=2;curveFitting=1;fontFamily=Architects Daughter;fontSource=https%3A%2F%2Ffonts.googleapis.com%2Fcss%3Ffamily%3DArchitects%2BDaughter;fontSize=20;" vertex="1" parent="1">
          <mxGeometry x="1183.58" y="-335" width="646" height="458" as="geometry" />
        </mxCell>
        <mxCell id="K7wMDh7OH1HqQqZJAVD5-369" value="" style="shape=tableRow;horizontal=0;startSize=0;swimlaneHead=0;swimlaneBody=0;strokeColor=inherit;top=0;left=0;bottom=0;right=0;collapsible=0;dropTarget=0;fillColor=none;points=[[0,0.5],[1,0.5]];portConstraint=eastwest;sketch=1;hachureGap=4;jiggle=2;curveFitting=1;fontFamily=Architects Daughter;fontSource=https%3A%2F%2Ffonts.googleapis.com%2Fcss%3Ffamily%3DArchitects%2BDaughter;" vertex="1" parent="K7wMDh7OH1HqQqZJAVD5-368">
          <mxGeometry y="30" width="646" height="71" as="geometry" />
        </mxCell>
        <mxCell id="K7wMDh7OH1HqQqZJAVD5-370" value="" style="shape=partialRectangle;html=1;whiteSpace=wrap;connectable=0;strokeColor=inherit;overflow=hidden;fillColor=none;top=0;left=0;bottom=0;right=0;pointerEvents=1;sketch=1;hachureGap=4;jiggle=2;curveFitting=1;fontFamily=Architects Daughter;fontSource=https%3A%2F%2Ffonts.googleapis.com%2Fcss%3Ffamily%3DArchitects%2BDaughter;" vertex="1" parent="K7wMDh7OH1HqQqZJAVD5-369">
          <mxGeometry width="108" height="71" as="geometry">
            <mxRectangle width="108" height="71" as="alternateBounds" />
          </mxGeometry>
        </mxCell>
        <mxCell id="K7wMDh7OH1HqQqZJAVD5-371" value="" style="shape=partialRectangle;html=1;whiteSpace=wrap;connectable=0;strokeColor=inherit;overflow=hidden;fillColor=none;top=0;left=0;bottom=0;right=0;pointerEvents=1;sketch=1;hachureGap=4;jiggle=2;curveFitting=1;fontFamily=Architects Daughter;fontSource=https%3A%2F%2Ffonts.googleapis.com%2Fcss%3Ffamily%3DArchitects%2BDaughter;" vertex="1" parent="K7wMDh7OH1HqQqZJAVD5-369">
          <mxGeometry x="108" width="107" height="71" as="geometry">
            <mxRectangle width="107" height="71" as="alternateBounds" />
          </mxGeometry>
        </mxCell>
        <mxCell id="K7wMDh7OH1HqQqZJAVD5-372" value="" style="shape=partialRectangle;html=1;whiteSpace=wrap;connectable=0;strokeColor=inherit;overflow=hidden;fillColor=none;top=0;left=0;bottom=0;right=0;pointerEvents=1;sketch=1;hachureGap=4;jiggle=2;curveFitting=1;fontFamily=Architects Daughter;fontSource=https%3A%2F%2Ffonts.googleapis.com%2Fcss%3Ffamily%3DArchitects%2BDaughter;" vertex="1" parent="K7wMDh7OH1HqQqZJAVD5-369">
          <mxGeometry x="215" width="108" height="71" as="geometry">
            <mxRectangle width="108" height="71" as="alternateBounds" />
          </mxGeometry>
        </mxCell>
        <mxCell id="K7wMDh7OH1HqQqZJAVD5-373" value="" style="shape=partialRectangle;html=1;whiteSpace=wrap;connectable=0;strokeColor=inherit;overflow=hidden;fillColor=none;top=0;left=0;bottom=0;right=0;pointerEvents=1;sketch=1;hachureGap=4;jiggle=2;curveFitting=1;fontFamily=Architects Daughter;fontSource=https%3A%2F%2Ffonts.googleapis.com%2Fcss%3Ffamily%3DArchitects%2BDaughter;" vertex="1" parent="K7wMDh7OH1HqQqZJAVD5-369">
          <mxGeometry x="323" width="108" height="71" as="geometry">
            <mxRectangle width="108" height="71" as="alternateBounds" />
          </mxGeometry>
        </mxCell>
        <mxCell id="K7wMDh7OH1HqQqZJAVD5-374" value="" style="shape=partialRectangle;html=1;whiteSpace=wrap;connectable=0;strokeColor=inherit;overflow=hidden;fillColor=none;top=0;left=0;bottom=0;right=0;pointerEvents=1;sketch=1;hachureGap=4;jiggle=2;curveFitting=1;fontFamily=Architects Daughter;fontSource=https%3A%2F%2Ffonts.googleapis.com%2Fcss%3Ffamily%3DArchitects%2BDaughter;" vertex="1" parent="K7wMDh7OH1HqQqZJAVD5-369">
          <mxGeometry x="431" width="107" height="71" as="geometry">
            <mxRectangle width="107" height="71" as="alternateBounds" />
          </mxGeometry>
        </mxCell>
        <mxCell id="K7wMDh7OH1HqQqZJAVD5-375" value="" style="shape=partialRectangle;html=1;whiteSpace=wrap;connectable=0;strokeColor=inherit;overflow=hidden;fillColor=none;top=0;left=0;bottom=0;right=0;pointerEvents=1;sketch=1;hachureGap=4;jiggle=2;curveFitting=1;fontFamily=Architects Daughter;fontSource=https%3A%2F%2Ffonts.googleapis.com%2Fcss%3Ffamily%3DArchitects%2BDaughter;" vertex="1" parent="K7wMDh7OH1HqQqZJAVD5-369">
          <mxGeometry x="538" width="108" height="71" as="geometry">
            <mxRectangle width="108" height="71" as="alternateBounds" />
          </mxGeometry>
        </mxCell>
        <mxCell id="K7wMDh7OH1HqQqZJAVD5-376" value="" style="shape=tableRow;horizontal=0;startSize=0;swimlaneHead=0;swimlaneBody=0;strokeColor=inherit;top=0;left=0;bottom=0;right=0;collapsible=0;dropTarget=0;fillColor=none;points=[[0,0.5],[1,0.5]];portConstraint=eastwest;sketch=1;hachureGap=4;jiggle=2;curveFitting=1;fontFamily=Architects Daughter;fontSource=https%3A%2F%2Ffonts.googleapis.com%2Fcss%3Ffamily%3DArchitects%2BDaughter;" vertex="1" parent="K7wMDh7OH1HqQqZJAVD5-368">
          <mxGeometry y="101" width="646" height="72" as="geometry" />
        </mxCell>
        <mxCell id="K7wMDh7OH1HqQqZJAVD5-377" value="" style="shape=partialRectangle;html=1;whiteSpace=wrap;connectable=0;strokeColor=inherit;overflow=hidden;fillColor=none;top=0;left=0;bottom=0;right=0;pointerEvents=1;sketch=1;hachureGap=4;jiggle=2;curveFitting=1;fontFamily=Architects Daughter;fontSource=https%3A%2F%2Ffonts.googleapis.com%2Fcss%3Ffamily%3DArchitects%2BDaughter;" vertex="1" parent="K7wMDh7OH1HqQqZJAVD5-376">
          <mxGeometry width="108" height="72" as="geometry">
            <mxRectangle width="108" height="72" as="alternateBounds" />
          </mxGeometry>
        </mxCell>
        <mxCell id="K7wMDh7OH1HqQqZJAVD5-378" value="" style="shape=partialRectangle;html=1;whiteSpace=wrap;connectable=0;strokeColor=inherit;overflow=hidden;fillColor=none;top=0;left=0;bottom=0;right=0;pointerEvents=1;sketch=1;hachureGap=4;jiggle=2;curveFitting=1;fontFamily=Architects Daughter;fontSource=https%3A%2F%2Ffonts.googleapis.com%2Fcss%3Ffamily%3DArchitects%2BDaughter;" vertex="1" parent="K7wMDh7OH1HqQqZJAVD5-376">
          <mxGeometry x="108" width="107" height="72" as="geometry">
            <mxRectangle width="107" height="72" as="alternateBounds" />
          </mxGeometry>
        </mxCell>
        <mxCell id="K7wMDh7OH1HqQqZJAVD5-379" value="" style="shape=partialRectangle;html=1;whiteSpace=wrap;connectable=0;strokeColor=inherit;overflow=hidden;fillColor=none;top=0;left=0;bottom=0;right=0;pointerEvents=1;sketch=1;hachureGap=4;jiggle=2;curveFitting=1;fontFamily=Architects Daughter;fontSource=https%3A%2F%2Ffonts.googleapis.com%2Fcss%3Ffamily%3DArchitects%2BDaughter;" vertex="1" parent="K7wMDh7OH1HqQqZJAVD5-376">
          <mxGeometry x="215" width="108" height="72" as="geometry">
            <mxRectangle width="108" height="72" as="alternateBounds" />
          </mxGeometry>
        </mxCell>
        <mxCell id="K7wMDh7OH1HqQqZJAVD5-380" value="" style="shape=partialRectangle;html=1;whiteSpace=wrap;connectable=0;strokeColor=inherit;overflow=hidden;fillColor=none;top=0;left=0;bottom=0;right=0;pointerEvents=1;sketch=1;hachureGap=4;jiggle=2;curveFitting=1;fontFamily=Architects Daughter;fontSource=https%3A%2F%2Ffonts.googleapis.com%2Fcss%3Ffamily%3DArchitects%2BDaughter;" vertex="1" parent="K7wMDh7OH1HqQqZJAVD5-376">
          <mxGeometry x="323" width="108" height="72" as="geometry">
            <mxRectangle width="108" height="72" as="alternateBounds" />
          </mxGeometry>
        </mxCell>
        <mxCell id="K7wMDh7OH1HqQqZJAVD5-381" value="" style="shape=partialRectangle;html=1;whiteSpace=wrap;connectable=0;strokeColor=inherit;overflow=hidden;fillColor=none;top=0;left=0;bottom=0;right=0;pointerEvents=1;sketch=1;hachureGap=4;jiggle=2;curveFitting=1;fontFamily=Architects Daughter;fontSource=https%3A%2F%2Ffonts.googleapis.com%2Fcss%3Ffamily%3DArchitects%2BDaughter;" vertex="1" parent="K7wMDh7OH1HqQqZJAVD5-376">
          <mxGeometry x="431" width="107" height="72" as="geometry">
            <mxRectangle width="107" height="72" as="alternateBounds" />
          </mxGeometry>
        </mxCell>
        <mxCell id="K7wMDh7OH1HqQqZJAVD5-382" value="" style="shape=partialRectangle;html=1;whiteSpace=wrap;connectable=0;strokeColor=inherit;overflow=hidden;fillColor=none;top=0;left=0;bottom=0;right=0;pointerEvents=1;sketch=1;hachureGap=4;jiggle=2;curveFitting=1;fontFamily=Architects Daughter;fontSource=https%3A%2F%2Ffonts.googleapis.com%2Fcss%3Ffamily%3DArchitects%2BDaughter;" vertex="1" parent="K7wMDh7OH1HqQqZJAVD5-376">
          <mxGeometry x="538" width="108" height="72" as="geometry">
            <mxRectangle width="108" height="72" as="alternateBounds" />
          </mxGeometry>
        </mxCell>
        <mxCell id="K7wMDh7OH1HqQqZJAVD5-383" value="" style="shape=tableRow;horizontal=0;startSize=0;swimlaneHead=0;swimlaneBody=0;strokeColor=inherit;top=0;left=0;bottom=0;right=0;collapsible=0;dropTarget=0;fillColor=none;points=[[0,0.5],[1,0.5]];portConstraint=eastwest;sketch=1;hachureGap=4;jiggle=2;curveFitting=1;fontFamily=Architects Daughter;fontSource=https%3A%2F%2Ffonts.googleapis.com%2Fcss%3Ffamily%3DArchitects%2BDaughter;" vertex="1" parent="K7wMDh7OH1HqQqZJAVD5-368">
          <mxGeometry y="173" width="646" height="71" as="geometry" />
        </mxCell>
        <mxCell id="K7wMDh7OH1HqQqZJAVD5-384" value="" style="shape=partialRectangle;html=1;whiteSpace=wrap;connectable=0;strokeColor=inherit;overflow=hidden;fillColor=none;top=0;left=0;bottom=0;right=0;pointerEvents=1;sketch=1;hachureGap=4;jiggle=2;curveFitting=1;fontFamily=Architects Daughter;fontSource=https%3A%2F%2Ffonts.googleapis.com%2Fcss%3Ffamily%3DArchitects%2BDaughter;" vertex="1" parent="K7wMDh7OH1HqQqZJAVD5-383">
          <mxGeometry width="108" height="71" as="geometry">
            <mxRectangle width="108" height="71" as="alternateBounds" />
          </mxGeometry>
        </mxCell>
        <mxCell id="K7wMDh7OH1HqQqZJAVD5-385" value="" style="shape=partialRectangle;html=1;whiteSpace=wrap;connectable=0;strokeColor=inherit;overflow=hidden;fillColor=none;top=0;left=0;bottom=0;right=0;pointerEvents=1;sketch=1;hachureGap=4;jiggle=2;curveFitting=1;fontFamily=Architects Daughter;fontSource=https%3A%2F%2Ffonts.googleapis.com%2Fcss%3Ffamily%3DArchitects%2BDaughter;" vertex="1" parent="K7wMDh7OH1HqQqZJAVD5-383">
          <mxGeometry x="108" width="107" height="71" as="geometry">
            <mxRectangle width="107" height="71" as="alternateBounds" />
          </mxGeometry>
        </mxCell>
        <mxCell id="K7wMDh7OH1HqQqZJAVD5-386" value="" style="shape=partialRectangle;html=1;whiteSpace=wrap;connectable=0;strokeColor=inherit;overflow=hidden;fillColor=none;top=0;left=0;bottom=0;right=0;pointerEvents=1;sketch=1;hachureGap=4;jiggle=2;curveFitting=1;fontFamily=Architects Daughter;fontSource=https%3A%2F%2Ffonts.googleapis.com%2Fcss%3Ffamily%3DArchitects%2BDaughter;" vertex="1" parent="K7wMDh7OH1HqQqZJAVD5-383">
          <mxGeometry x="215" width="108" height="71" as="geometry">
            <mxRectangle width="108" height="71" as="alternateBounds" />
          </mxGeometry>
        </mxCell>
        <mxCell id="K7wMDh7OH1HqQqZJAVD5-387" value="" style="shape=partialRectangle;html=1;whiteSpace=wrap;connectable=0;strokeColor=inherit;overflow=hidden;fillColor=none;top=0;left=0;bottom=0;right=0;pointerEvents=1;sketch=1;hachureGap=4;jiggle=2;curveFitting=1;fontFamily=Architects Daughter;fontSource=https%3A%2F%2Ffonts.googleapis.com%2Fcss%3Ffamily%3DArchitects%2BDaughter;" vertex="1" parent="K7wMDh7OH1HqQqZJAVD5-383">
          <mxGeometry x="323" width="108" height="71" as="geometry">
            <mxRectangle width="108" height="71" as="alternateBounds" />
          </mxGeometry>
        </mxCell>
        <mxCell id="K7wMDh7OH1HqQqZJAVD5-388" value="" style="shape=partialRectangle;html=1;whiteSpace=wrap;connectable=0;strokeColor=inherit;overflow=hidden;fillColor=none;top=0;left=0;bottom=0;right=0;pointerEvents=1;sketch=1;hachureGap=4;jiggle=2;curveFitting=1;fontFamily=Architects Daughter;fontSource=https%3A%2F%2Ffonts.googleapis.com%2Fcss%3Ffamily%3DArchitects%2BDaughter;" vertex="1" parent="K7wMDh7OH1HqQqZJAVD5-383">
          <mxGeometry x="431" width="107" height="71" as="geometry">
            <mxRectangle width="107" height="71" as="alternateBounds" />
          </mxGeometry>
        </mxCell>
        <mxCell id="K7wMDh7OH1HqQqZJAVD5-389" value="" style="shape=partialRectangle;html=1;whiteSpace=wrap;connectable=0;strokeColor=inherit;overflow=hidden;fillColor=none;top=0;left=0;bottom=0;right=0;pointerEvents=1;sketch=1;hachureGap=4;jiggle=2;curveFitting=1;fontFamily=Architects Daughter;fontSource=https%3A%2F%2Ffonts.googleapis.com%2Fcss%3Ffamily%3DArchitects%2BDaughter;" vertex="1" parent="K7wMDh7OH1HqQqZJAVD5-383">
          <mxGeometry x="538" width="108" height="71" as="geometry">
            <mxRectangle width="108" height="71" as="alternateBounds" />
          </mxGeometry>
        </mxCell>
        <mxCell id="K7wMDh7OH1HqQqZJAVD5-390" value="" style="shape=tableRow;horizontal=0;startSize=0;swimlaneHead=0;swimlaneBody=0;strokeColor=inherit;top=0;left=0;bottom=0;right=0;collapsible=0;dropTarget=0;fillColor=none;points=[[0,0.5],[1,0.5]];portConstraint=eastwest;sketch=1;hachureGap=4;jiggle=2;curveFitting=1;fontFamily=Architects Daughter;fontSource=https%3A%2F%2Ffonts.googleapis.com%2Fcss%3Ffamily%3DArchitects%2BDaughter;" vertex="1" parent="K7wMDh7OH1HqQqZJAVD5-368">
          <mxGeometry y="244" width="646" height="71" as="geometry" />
        </mxCell>
        <mxCell id="K7wMDh7OH1HqQqZJAVD5-391" value="" style="shape=partialRectangle;html=1;whiteSpace=wrap;connectable=0;strokeColor=inherit;overflow=hidden;fillColor=none;top=0;left=0;bottom=0;right=0;pointerEvents=1;sketch=1;hachureGap=4;jiggle=2;curveFitting=1;fontFamily=Architects Daughter;fontSource=https%3A%2F%2Ffonts.googleapis.com%2Fcss%3Ffamily%3DArchitects%2BDaughter;" vertex="1" parent="K7wMDh7OH1HqQqZJAVD5-390">
          <mxGeometry width="108" height="71" as="geometry">
            <mxRectangle width="108" height="71" as="alternateBounds" />
          </mxGeometry>
        </mxCell>
        <mxCell id="K7wMDh7OH1HqQqZJAVD5-392" value="" style="shape=partialRectangle;html=1;whiteSpace=wrap;connectable=0;strokeColor=inherit;overflow=hidden;fillColor=none;top=0;left=0;bottom=0;right=0;pointerEvents=1;sketch=1;hachureGap=4;jiggle=2;curveFitting=1;fontFamily=Architects Daughter;fontSource=https%3A%2F%2Ffonts.googleapis.com%2Fcss%3Ffamily%3DArchitects%2BDaughter;" vertex="1" parent="K7wMDh7OH1HqQqZJAVD5-390">
          <mxGeometry x="108" width="107" height="71" as="geometry">
            <mxRectangle width="107" height="71" as="alternateBounds" />
          </mxGeometry>
        </mxCell>
        <mxCell id="K7wMDh7OH1HqQqZJAVD5-393" value="" style="shape=partialRectangle;html=1;whiteSpace=wrap;connectable=0;strokeColor=inherit;overflow=hidden;fillColor=none;top=0;left=0;bottom=0;right=0;pointerEvents=1;sketch=1;hachureGap=4;jiggle=2;curveFitting=1;fontFamily=Architects Daughter;fontSource=https%3A%2F%2Ffonts.googleapis.com%2Fcss%3Ffamily%3DArchitects%2BDaughter;" vertex="1" parent="K7wMDh7OH1HqQqZJAVD5-390">
          <mxGeometry x="215" width="108" height="71" as="geometry">
            <mxRectangle width="108" height="71" as="alternateBounds" />
          </mxGeometry>
        </mxCell>
        <mxCell id="K7wMDh7OH1HqQqZJAVD5-394" value="" style="shape=partialRectangle;html=1;whiteSpace=wrap;connectable=0;strokeColor=inherit;overflow=hidden;fillColor=none;top=0;left=0;bottom=0;right=0;pointerEvents=1;sketch=1;hachureGap=4;jiggle=2;curveFitting=1;fontFamily=Architects Daughter;fontSource=https%3A%2F%2Ffonts.googleapis.com%2Fcss%3Ffamily%3DArchitects%2BDaughter;" vertex="1" parent="K7wMDh7OH1HqQqZJAVD5-390">
          <mxGeometry x="323" width="108" height="71" as="geometry">
            <mxRectangle width="108" height="71" as="alternateBounds" />
          </mxGeometry>
        </mxCell>
        <mxCell id="K7wMDh7OH1HqQqZJAVD5-395" value="" style="shape=partialRectangle;html=1;whiteSpace=wrap;connectable=0;strokeColor=inherit;overflow=hidden;fillColor=none;top=0;left=0;bottom=0;right=0;pointerEvents=1;sketch=1;hachureGap=4;jiggle=2;curveFitting=1;fontFamily=Architects Daughter;fontSource=https%3A%2F%2Ffonts.googleapis.com%2Fcss%3Ffamily%3DArchitects%2BDaughter;" vertex="1" parent="K7wMDh7OH1HqQqZJAVD5-390">
          <mxGeometry x="431" width="107" height="71" as="geometry">
            <mxRectangle width="107" height="71" as="alternateBounds" />
          </mxGeometry>
        </mxCell>
        <mxCell id="K7wMDh7OH1HqQqZJAVD5-396" value="" style="shape=partialRectangle;html=1;whiteSpace=wrap;connectable=0;strokeColor=inherit;overflow=hidden;fillColor=none;top=0;left=0;bottom=0;right=0;pointerEvents=1;sketch=1;hachureGap=4;jiggle=2;curveFitting=1;fontFamily=Architects Daughter;fontSource=https%3A%2F%2Ffonts.googleapis.com%2Fcss%3Ffamily%3DArchitects%2BDaughter;" vertex="1" parent="K7wMDh7OH1HqQqZJAVD5-390">
          <mxGeometry x="538" width="108" height="71" as="geometry">
            <mxRectangle width="108" height="71" as="alternateBounds" />
          </mxGeometry>
        </mxCell>
        <mxCell id="K7wMDh7OH1HqQqZJAVD5-397" value="" style="shape=tableRow;horizontal=0;startSize=0;swimlaneHead=0;swimlaneBody=0;strokeColor=inherit;top=0;left=0;bottom=0;right=0;collapsible=0;dropTarget=0;fillColor=none;points=[[0,0.5],[1,0.5]];portConstraint=eastwest;sketch=1;hachureGap=4;jiggle=2;curveFitting=1;fontFamily=Architects Daughter;fontSource=https%3A%2F%2Ffonts.googleapis.com%2Fcss%3Ffamily%3DArchitects%2BDaughter;" vertex="1" parent="K7wMDh7OH1HqQqZJAVD5-368">
          <mxGeometry y="315" width="646" height="72" as="geometry" />
        </mxCell>
        <mxCell id="K7wMDh7OH1HqQqZJAVD5-398" value="" style="shape=partialRectangle;html=1;whiteSpace=wrap;connectable=0;strokeColor=inherit;overflow=hidden;fillColor=none;top=0;left=0;bottom=0;right=0;pointerEvents=1;sketch=1;hachureGap=4;jiggle=2;curveFitting=1;fontFamily=Architects Daughter;fontSource=https%3A%2F%2Ffonts.googleapis.com%2Fcss%3Ffamily%3DArchitects%2BDaughter;" vertex="1" parent="K7wMDh7OH1HqQqZJAVD5-397">
          <mxGeometry width="108" height="72" as="geometry">
            <mxRectangle width="108" height="72" as="alternateBounds" />
          </mxGeometry>
        </mxCell>
        <mxCell id="K7wMDh7OH1HqQqZJAVD5-399" value="" style="shape=partialRectangle;html=1;whiteSpace=wrap;connectable=0;strokeColor=inherit;overflow=hidden;fillColor=none;top=0;left=0;bottom=0;right=0;pointerEvents=1;sketch=1;hachureGap=4;jiggle=2;curveFitting=1;fontFamily=Architects Daughter;fontSource=https%3A%2F%2Ffonts.googleapis.com%2Fcss%3Ffamily%3DArchitects%2BDaughter;" vertex="1" parent="K7wMDh7OH1HqQqZJAVD5-397">
          <mxGeometry x="108" width="107" height="72" as="geometry">
            <mxRectangle width="107" height="72" as="alternateBounds" />
          </mxGeometry>
        </mxCell>
        <mxCell id="K7wMDh7OH1HqQqZJAVD5-400" value="" style="shape=partialRectangle;html=1;whiteSpace=wrap;connectable=0;strokeColor=inherit;overflow=hidden;fillColor=none;top=0;left=0;bottom=0;right=0;pointerEvents=1;sketch=1;hachureGap=4;jiggle=2;curveFitting=1;fontFamily=Architects Daughter;fontSource=https%3A%2F%2Ffonts.googleapis.com%2Fcss%3Ffamily%3DArchitects%2BDaughter;" vertex="1" parent="K7wMDh7OH1HqQqZJAVD5-397">
          <mxGeometry x="215" width="108" height="72" as="geometry">
            <mxRectangle width="108" height="72" as="alternateBounds" />
          </mxGeometry>
        </mxCell>
        <mxCell id="K7wMDh7OH1HqQqZJAVD5-401" value="" style="shape=partialRectangle;html=1;whiteSpace=wrap;connectable=0;strokeColor=inherit;overflow=hidden;fillColor=none;top=0;left=0;bottom=0;right=0;pointerEvents=1;sketch=1;hachureGap=4;jiggle=2;curveFitting=1;fontFamily=Architects Daughter;fontSource=https%3A%2F%2Ffonts.googleapis.com%2Fcss%3Ffamily%3DArchitects%2BDaughter;" vertex="1" parent="K7wMDh7OH1HqQqZJAVD5-397">
          <mxGeometry x="323" width="108" height="72" as="geometry">
            <mxRectangle width="108" height="72" as="alternateBounds" />
          </mxGeometry>
        </mxCell>
        <mxCell id="K7wMDh7OH1HqQqZJAVD5-402" value="" style="shape=partialRectangle;html=1;whiteSpace=wrap;connectable=0;strokeColor=inherit;overflow=hidden;fillColor=none;top=0;left=0;bottom=0;right=0;pointerEvents=1;sketch=1;hachureGap=4;jiggle=2;curveFitting=1;fontFamily=Architects Daughter;fontSource=https%3A%2F%2Ffonts.googleapis.com%2Fcss%3Ffamily%3DArchitects%2BDaughter;" vertex="1" parent="K7wMDh7OH1HqQqZJAVD5-397">
          <mxGeometry x="431" width="107" height="72" as="geometry">
            <mxRectangle width="107" height="72" as="alternateBounds" />
          </mxGeometry>
        </mxCell>
        <mxCell id="K7wMDh7OH1HqQqZJAVD5-403" value="" style="shape=partialRectangle;html=1;whiteSpace=wrap;connectable=0;strokeColor=inherit;overflow=hidden;fillColor=none;top=0;left=0;bottom=0;right=0;pointerEvents=1;sketch=1;hachureGap=4;jiggle=2;curveFitting=1;fontFamily=Architects Daughter;fontSource=https%3A%2F%2Ffonts.googleapis.com%2Fcss%3Ffamily%3DArchitects%2BDaughter;" vertex="1" parent="K7wMDh7OH1HqQqZJAVD5-397">
          <mxGeometry x="538" width="108" height="72" as="geometry">
            <mxRectangle width="108" height="72" as="alternateBounds" />
          </mxGeometry>
        </mxCell>
        <mxCell id="K7wMDh7OH1HqQqZJAVD5-404" value="" style="shape=tableRow;horizontal=0;startSize=0;swimlaneHead=0;swimlaneBody=0;strokeColor=inherit;top=0;left=0;bottom=0;right=0;collapsible=0;dropTarget=0;fillColor=none;points=[[0,0.5],[1,0.5]];portConstraint=eastwest;sketch=1;hachureGap=4;jiggle=2;curveFitting=1;fontFamily=Architects Daughter;fontSource=https%3A%2F%2Ffonts.googleapis.com%2Fcss%3Ffamily%3DArchitects%2BDaughter;" vertex="1" parent="K7wMDh7OH1HqQqZJAVD5-368">
          <mxGeometry y="387" width="646" height="71" as="geometry" />
        </mxCell>
        <mxCell id="K7wMDh7OH1HqQqZJAVD5-405" value="" style="shape=partialRectangle;html=1;whiteSpace=wrap;connectable=0;strokeColor=inherit;overflow=hidden;fillColor=none;top=0;left=0;bottom=0;right=0;pointerEvents=1;sketch=1;hachureGap=4;jiggle=2;curveFitting=1;fontFamily=Architects Daughter;fontSource=https%3A%2F%2Ffonts.googleapis.com%2Fcss%3Ffamily%3DArchitects%2BDaughter;" vertex="1" parent="K7wMDh7OH1HqQqZJAVD5-404">
          <mxGeometry width="108" height="71" as="geometry">
            <mxRectangle width="108" height="71" as="alternateBounds" />
          </mxGeometry>
        </mxCell>
        <mxCell id="K7wMDh7OH1HqQqZJAVD5-406" value="" style="shape=partialRectangle;html=1;whiteSpace=wrap;connectable=0;strokeColor=inherit;overflow=hidden;fillColor=none;top=0;left=0;bottom=0;right=0;pointerEvents=1;sketch=1;hachureGap=4;jiggle=2;curveFitting=1;fontFamily=Architects Daughter;fontSource=https%3A%2F%2Ffonts.googleapis.com%2Fcss%3Ffamily%3DArchitects%2BDaughter;" vertex="1" parent="K7wMDh7OH1HqQqZJAVD5-404">
          <mxGeometry x="108" width="107" height="71" as="geometry">
            <mxRectangle width="107" height="71" as="alternateBounds" />
          </mxGeometry>
        </mxCell>
        <mxCell id="K7wMDh7OH1HqQqZJAVD5-407" value="" style="shape=partialRectangle;html=1;whiteSpace=wrap;connectable=0;strokeColor=inherit;overflow=hidden;fillColor=none;top=0;left=0;bottom=0;right=0;pointerEvents=1;sketch=1;hachureGap=4;jiggle=2;curveFitting=1;fontFamily=Architects Daughter;fontSource=https%3A%2F%2Ffonts.googleapis.com%2Fcss%3Ffamily%3DArchitects%2BDaughter;" vertex="1" parent="K7wMDh7OH1HqQqZJAVD5-404">
          <mxGeometry x="215" width="108" height="71" as="geometry">
            <mxRectangle width="108" height="71" as="alternateBounds" />
          </mxGeometry>
        </mxCell>
        <mxCell id="K7wMDh7OH1HqQqZJAVD5-408" value="" style="shape=partialRectangle;html=1;whiteSpace=wrap;connectable=0;strokeColor=inherit;overflow=hidden;fillColor=none;top=0;left=0;bottom=0;right=0;pointerEvents=1;sketch=1;hachureGap=4;jiggle=2;curveFitting=1;fontFamily=Architects Daughter;fontSource=https%3A%2F%2Ffonts.googleapis.com%2Fcss%3Ffamily%3DArchitects%2BDaughter;" vertex="1" parent="K7wMDh7OH1HqQqZJAVD5-404">
          <mxGeometry x="323" width="108" height="71" as="geometry">
            <mxRectangle width="108" height="71" as="alternateBounds" />
          </mxGeometry>
        </mxCell>
        <mxCell id="K7wMDh7OH1HqQqZJAVD5-409" value="" style="shape=partialRectangle;html=1;whiteSpace=wrap;connectable=0;strokeColor=inherit;overflow=hidden;fillColor=none;top=0;left=0;bottom=0;right=0;pointerEvents=1;sketch=1;hachureGap=4;jiggle=2;curveFitting=1;fontFamily=Architects Daughter;fontSource=https%3A%2F%2Ffonts.googleapis.com%2Fcss%3Ffamily%3DArchitects%2BDaughter;" vertex="1" parent="K7wMDh7OH1HqQqZJAVD5-404">
          <mxGeometry x="431" width="107" height="71" as="geometry">
            <mxRectangle width="107" height="71" as="alternateBounds" />
          </mxGeometry>
        </mxCell>
        <mxCell id="K7wMDh7OH1HqQqZJAVD5-410" value="" style="shape=partialRectangle;html=1;whiteSpace=wrap;connectable=0;strokeColor=inherit;overflow=hidden;fillColor=none;top=0;left=0;bottom=0;right=0;pointerEvents=1;sketch=1;hachureGap=4;jiggle=2;curveFitting=1;fontFamily=Architects Daughter;fontSource=https%3A%2F%2Ffonts.googleapis.com%2Fcss%3Ffamily%3DArchitects%2BDaughter;" vertex="1" parent="K7wMDh7OH1HqQqZJAVD5-404">
          <mxGeometry x="538" width="108" height="71" as="geometry">
            <mxRectangle width="108" height="71" as="alternateBounds" />
          </mxGeometry>
        </mxCell>
        <mxCell id="K7wMDh7OH1HqQqZJAVD5-413" style="edgeStyle=none;curved=1;rounded=0;sketch=1;hachureGap=4;jiggle=2;curveFitting=1;orthogonalLoop=1;jettySize=auto;html=1;exitX=0;exitY=0.5;exitDx=0;exitDy=0;fontFamily=Architects Daughter;fontSource=https%3A%2F%2Ffonts.googleapis.com%2Fcss%3Ffamily%3DArchitects%2BDaughter;fontSize=16;startSize=14;endArrow=open;endSize=14;sourcePerimeterSpacing=8;targetPerimeterSpacing=8;entryX=0;entryY=0.75;entryDx=0;entryDy=0;" edge="1" parent="1" source="K7wMDh7OH1HqQqZJAVD5-411" target="K7wMDh7OH1HqQqZJAVD5-416">
          <mxGeometry relative="1" as="geometry">
            <mxPoint x="1533.08" y="611.5" as="targetPoint" />
            <mxPoint x="1263.5756640625004" y="-185" as="sourcePoint" />
            <Array as="points">
              <mxPoint x="684" y="-211" />
              <mxPoint x="1062" y="648" />
            </Array>
          </mxGeometry>
        </mxCell>
        <mxCell id="K7wMDh7OH1HqQqZJAVD5-417" value="Quando o programa acessa a variável nome,&lt;div&gt;ele recebe o valor João.&lt;/div&gt;" style="edgeLabel;html=1;align=center;verticalAlign=middle;resizable=0;points=[];fontSize=25;sketch=1;hachureGap=4;jiggle=2;curveFitting=1;fontFamily=Architects Daughter;fontSource=https%3A%2F%2Ffonts.googleapis.com%2Fcss%3Ffamily%3DArchitects%2BDaughter;" vertex="1" connectable="0" parent="K7wMDh7OH1HqQqZJAVD5-413">
          <mxGeometry x="0.1903" y="2" relative="1" as="geometry">
            <mxPoint as="offset" />
          </mxGeometry>
        </mxCell>
        <mxCell id="K7wMDh7OH1HqQqZJAVD5-411" value="nome" style="text;strokeColor=none;align=center;fillColor=none;html=1;verticalAlign=middle;whiteSpace=wrap;rounded=0;fontSize=20;fontFamily=Architects Daughter;fontSource=https%3A%2F%2Ffonts.googleapis.com%2Fcss%3Ffamily%3DArchitects%2BDaughter;" vertex="1" parent="1">
          <mxGeometry x="1315.5756640625" y="-209" width="60" height="30" as="geometry" />
        </mxCell>
        <mxCell id="K7wMDh7OH1HqQqZJAVD5-415" value="Execução do Programa" style="text;strokeColor=none;align=center;fillColor=none;html=1;verticalAlign=middle;whiteSpace=wrap;rounded=0;fontSize=30;fontFamily=Architects Daughter;fontSource=https%3A%2F%2Ffonts.googleapis.com%2Fcss%3Ffamily%3DArchitects%2BDaughter;" vertex="1" parent="1">
          <mxGeometry x="1325.7199999999998" y="393" width="332.72" height="30" as="geometry" />
        </mxCell>
        <mxCell id="K7wMDh7OH1HqQqZJAVD5-416" value="João" style="text;strokeColor=none;align=center;fillColor=none;html=1;verticalAlign=middle;whiteSpace=wrap;rounded=0;fontSize=80;fontFamily=Architects Daughter;fontSource=https%3A%2F%2Ffonts.googleapis.com%2Fcss%3Ffamily%3DArchitects%2BDaughter;" vertex="1" parent="1">
          <mxGeometry x="1392.08" y="502.5" width="200" height="77" as="geometry" />
        </mxCell>
        <mxCell id="K7wMDh7OH1HqQqZJAVD5-419" style="edgeStyle=none;curved=1;rounded=0;sketch=1;hachureGap=4;jiggle=2;curveFitting=1;orthogonalLoop=1;jettySize=auto;html=1;exitX=0.5;exitY=1;exitDx=0;exitDy=0;fontFamily=Architects Daughter;fontSource=https%3A%2F%2Ffonts.googleapis.com%2Fcss%3Ffamily%3DArchitects%2BDaughter;fontSize=16;startSize=14;endArrow=open;endSize=14;sourcePerimeterSpacing=8;targetPerimeterSpacing=8;entryX=0.5;entryY=0;entryDx=0;entryDy=0;" edge="1" parent="1" source="K7wMDh7OH1HqQqZJAVD5-418" target="K7wMDh7OH1HqQqZJAVD5-420">
          <mxGeometry relative="1" as="geometry">
            <mxPoint x="2688" y="-65.111083984375" as="targetPoint" />
          </mxGeometry>
        </mxCell>
        <mxCell id="K7wMDh7OH1HqQqZJAVD5-418" value="Linguagem Humana" style="text;strokeColor=none;align=center;fillColor=none;html=1;verticalAlign=middle;whiteSpace=wrap;rounded=0;fontSize=60;fontFamily=Architects Daughter;fontSource=https%3A%2F%2Ffonts.googleapis.com%2Fcss%3Ffamily%3DArchitects%2BDaughter;" vertex="1" parent="1">
          <mxGeometry x="2412.44" y="-349" width="551.56" height="80" as="geometry" />
        </mxCell>
        <mxCell id="K7wMDh7OH1HqQqZJAVD5-426" style="edgeStyle=none;curved=1;rounded=0;sketch=1;hachureGap=4;jiggle=2;curveFitting=1;orthogonalLoop=1;jettySize=auto;html=1;exitX=0.5;exitY=1;exitDx=0;exitDy=0;fontFamily=Architects Daughter;fontSource=https%3A%2F%2Ffonts.googleapis.com%2Fcss%3Ffamily%3DArchitects%2BDaughter;fontSize=16;startSize=14;endArrow=open;endSize=14;sourcePerimeterSpacing=8;targetPerimeterSpacing=8;entryX=0.5;entryY=1;entryDx=0;entryDy=0;" edge="1" parent="1" source="K7wMDh7OH1HqQqZJAVD5-420" target="K7wMDh7OH1HqQqZJAVD5-428">
          <mxGeometry relative="1" as="geometry">
            <mxPoint x="3717" y="300" as="targetPoint" />
            <Array as="points">
              <mxPoint x="3183" y="624" />
            </Array>
          </mxGeometry>
        </mxCell>
        <mxCell id="K7wMDh7OH1HqQqZJAVD5-420" value="Quero exibir o nome &quot;Adalberto&quot;" style="text;strokeColor=none;align=center;fillColor=none;html=1;verticalAlign=middle;whiteSpace=wrap;rounded=0;fontSize=60;fontFamily=Architects Daughter;fontSource=https%3A%2F%2Ffonts.googleapis.com%2Fcss%3Ffamily%3DArchitects%2BDaughter;" vertex="1" parent="1">
          <mxGeometry x="2235.72" y="-41" width="905" height="80" as="geometry" />
        </mxCell>
        <mxCell id="K7wMDh7OH1HqQqZJAVD5-423" style="edgeStyle=none;curved=1;rounded=0;sketch=1;hachureGap=4;jiggle=2;curveFitting=1;orthogonalLoop=1;jettySize=auto;html=1;exitX=0.5;exitY=1;exitDx=0;exitDy=0;fontFamily=Architects Daughter;fontSource=https%3A%2F%2Ffonts.googleapis.com%2Fcss%3Ffamily%3DArchitects%2BDaughter;fontSize=16;startSize=14;endArrow=open;endSize=14;sourcePerimeterSpacing=8;targetPerimeterSpacing=8;entryX=0.5;entryY=0;entryDx=0;entryDy=0;" edge="1" parent="1" source="K7wMDh7OH1HqQqZJAVD5-422" target="K7wMDh7OH1HqQqZJAVD5-428">
          <mxGeometry relative="1" as="geometry">
            <mxPoint x="3703" y="-143" as="targetPoint" />
          </mxGeometry>
        </mxCell>
        <mxCell id="K7wMDh7OH1HqQqZJAVD5-422" value="Linguagem De Programação (Java)" style="text;strokeColor=none;align=center;fillColor=none;html=1;verticalAlign=middle;whiteSpace=wrap;rounded=0;fontSize=60;fontFamily=Architects Daughter;fontSource=https%3A%2F%2Ffonts.googleapis.com%2Fcss%3Ffamily%3DArchitects%2BDaughter;" vertex="1" parent="1">
          <mxGeometry x="3221" y="-349" width="978" height="80" as="geometry" />
        </mxCell>
        <mxCell id="K7wMDh7OH1HqQqZJAVD5-427" value="Objetivo: Fazer o computador exibir o nome: Adalberto" style="text;strokeColor=none;align=center;fillColor=none;html=1;verticalAlign=middle;whiteSpace=wrap;rounded=0;fontSize=50;fontFamily=Architects Daughter;fontSource=https%3A%2F%2Ffonts.googleapis.com%2Fcss%3Ffamily%3DArchitects%2BDaughter;" vertex="1" parent="1">
          <mxGeometry x="2854" y="-735" width="744.44" height="126.11" as="geometry" />
        </mxCell>
        <mxCell id="K7wMDh7OH1HqQqZJAVD5-430" style="edgeStyle=none;curved=1;rounded=0;sketch=1;hachureGap=4;jiggle=2;curveFitting=1;orthogonalLoop=1;jettySize=auto;html=1;exitX=1;exitY=1;exitDx=0;exitDy=0;fontFamily=Architects Daughter;fontSource=https%3A%2F%2Ffonts.googleapis.com%2Fcss%3Ffamily%3DArchitects%2BDaughter;fontSize=16;startSize=14;endArrow=open;endSize=14;sourcePerimeterSpacing=8;targetPerimeterSpacing=8;entryX=0.5;entryY=1;entryDx=0;entryDy=0;" edge="1" parent="1" source="K7wMDh7OH1HqQqZJAVD5-428" target="K7wMDh7OH1HqQqZJAVD5-429">
          <mxGeometry relative="1" as="geometry">
            <mxPoint x="5175.959916548294" y="248.99548916903402" as="targetPoint" />
            <mxPoint x="4142.0042400568145" y="279.4604163707385" as="sourcePoint" />
            <Array as="points">
              <mxPoint x="4766" y="653" />
            </Array>
          </mxGeometry>
        </mxCell>
        <mxCell id="K7wMDh7OH1HqQqZJAVD5-428" value="" style="shape=image;verticalLabelPosition=bottom;labelBackgroundColor=default;verticalAlign=top;aspect=fixed;imageAspect=0;image=data:image/png,iVBORw0KGgoAAAANSUhEUgAAA1AAAAE/CAYAAABIJiKXAAAAAXNSR0IArs4c6QAAAARnQU1BAACxjwv8YQUAAAAJcEhZcwAADsMAAA7DAcdvqGQAAJC4SURBVHhe7N17XFR1/vjxFxcZLnJH0AEUxBsqYi6kpXnDNdcMt0xby2wz21Xbb/bd1r6blZWV7VdrV/uWur/Myi6uabZSueZ6VyyC9YZKiIiKoiB3HHCGAX5/zP0wA6MCor6fj8c8HnjOZ45nzpyZOe/zeX/eH5eoqKgGhBBCCCGEEEI0y1W5QAghhBBCCCGEfRJACSGEEEIIIYSTJIASQgghhBBCCCdJACWEEEIIIYQQTpIASgghhBBCCCGcJAGUEEIIIYQQQjhJAighhBBCCCGEcJIEUEIIIYQQQgjhJAmghBBCCCGEEMJJEkAJIYQQQgghhJMkgBJCCCGEEEIIJ0kAJYQQQgghhBBOkgBKCCGEEEIIIZwkAZQQQgghhBBCOEkCKCGEEEIIIYRwkgRQQgghhBBCCOEkCaCEEEIIIYQQwkkSQAkhhBBCCCGEkySAEkIIIYQQQggnSQAlhBBCCCGEEE6SAEoIIYQQQgghnCQBlBBCCCGEEEI4SQIoIYQQQgghhHCSBFBCCCGEEEII4SQJoIQQQgghhBDCSRJACSGEEEIIIYSTJIASQgghhBBCCCdJACWEEEIIIYQQTpIASgghhBBCCCGcJAGUEEIIIYQQQjhJAighhBBCCCGEcJIEUEIIIYQQQgjhJAmghBBCCCGEEMJJEkAJIYQQQgghhJMkgBJCCCGEEEIIJ0kAJYQQQgghhBBOkgBKCCGEEEIIIZwkAZQQQgghhBBCOEkCKCGEEEIIIYRwkgRQQgghhBBCCOEkCaCEEEIIIYQQwkkSQAkhhBBCCCGEkySAEkIIIYQQQggnSQAlhBBCCCGEEE6SAEoIIYQQQgghnCQBlBBCCCGEEEI4SQIoIYQQQgghhHCSBFBCCCGEEEII4SQJoIQQQgghhBDCSRJACSGEEEIIIYSTJIASQgghhBBCCCdJACWEEEIIIYQQTpIASgghhBBCCCGcJAGUEEIIIYQQQjhJAighhBBCCCGEcJIEUEIIIYQQQgjhJAmghBBCCCGEEMJJEkAJIYQQQgghhJMkgBJCCCGEEEIIJ0kAJYQQQgghhBBOkgBKCCGEEEIIIZwkAZQQQgghhBBCOEkCKCGEEEIIIYRwkgRQQgghhBBCCOEkCaCEEEIIIYQQwkkSQAkhhBBCCCGEkySAEkIIIYQQQggnuURFRTUoF4p76PH8XLp3BMgjc8E8LiibXIUuT20gLlK51KJ420Mc2KNc6qwAvOKTCfItpzQjhZoryvW3qZ7zueexQXgpl5tcPkDq4kVolMvF7aFvEHMe6E5w+Sm+fL+UbOX6W4BKpWLw4MHExcUREBCAu7s7AAcPHiQlJUXZXAghhBBOkh6om1oEoU8u555JyfQbO517/rSELkHKNkIIG4PjWP/BE8x4YAQTn3iC1RsGMlTZ5ibn5+fHlClTGDlyJCEhIebgSQghhBDXT3qg7GrZHijXoDg6eNguC33wFWI7G/6+5h4ov9kk/CkJ65ip6qfX+OHbTKsltyn3CFQhgbbLwh/kzolxhl4p6YFqWY8ksfOPA/E1/lN7aD1DZ55VNDKKjOXzDePp7Wb8d9Uhlo7azmeKZq0l8S+PsWJMqNWSElIXfMzczVaLbnLJycnEx8fj6upKfX0958+f58SJE1RWVlJcXExBQYHyKUIIIYRwkvRAtYH60ky0F20f+lplq2tQWYRWb7tIW3nKdsHtSn+u0THXVrbEQRfOUPXqzxzlQiP1b2ItwRMANv9odelFFYolGopvoXsOarWa6Ohoc/B04MABVq9ezb59+zhy5IgET0IIIcR1kgDqpvYVWVtPoDEGUZqcrziyR/pUxA3gp8Kmk9W7OwmzrBeYqJhzd7TtIl9/FEta11+38+VxYxBVV0H2us28nq9sdPMKCQnBy8sw+q+yspKDBw8qmwghhBDiOkgAdZPT/zif1IUPsXXBQ6R+uhZFh5QQbSPUBxUAFVRVAagYMDxW2QoGxzEgEkCLtlq5sq1oWDx9FQkJ75AweBWPLrm1bjoEBwebxzzV1NRIj5MQQgjRwiSAEkK0oAp+zjb27sTE8ryi+uS4h/ujBqg+RerxWytwaY+uXJGynEIIIURLu/FFJIYvYewYQwJP4daHOLwP6JhE+P33ExUTgY8xL6heV07pkX9xbPNXjcb9mPhM/oShcT7QbGGG6QxamEwIjooJ2Csi4YMqbjo9koYQFuCDuytQr6Om/DSnvlnM+dxymy00x7q0edP7as16v+zRcOrTxzmZo1zuhI5JdPnVOKKiw/Hp6GGOrOt1GjSXTnFu/0byM9t6oEgAXvFTibrnF4QGBKAy5YjV69BWFlGcf4DT36xB4+w1onVpc7vvuyM+uEYmEXLHHXTpGkmAnzcdPK2PkY6a8mzO7r6KY+QeR8CYB+nRtzd+fh6G88moXqejVldO1ZkfObZuDVrr59njeQ9d7k9u9N4B6K/oqLtSRPnPWzi8eYvVmha2YDIZyV2Bs2xapWHczFhU6Mlet4xHl5gaBbHs+ycYGgzazI2s0CbxbIK/4yIOfX2YcV9/EuO60j0yjI7eKlTm4VJ6tFUVFGT/h/XvZvLlcdun2lAUuGjE6SIWA1mfkWRINzyxmYRHsiDSnznPjGBiQjTBvsZKd1oNJbkHWbcqjdVOfa5b1qhRoxg6dChubm7k5eWxZs0aZRMhhBBCXId21QPl5gruQxYx4vnZ9Iu1BE8Arh4BhCRM5Z5n5mG6Tmkz7nGEPr6cEZOTCA8yBk8Arh54BfWi3+PLiR/eS/Gkm0UvgiYvZ/Tzs4mLi8ZXcQHu6uGDb3gcsZP/RI+eVitaW7eZxD+/insmJREZahU8YTjuqoAIwuOSGfrYdKsVrWUSA5+azsCEOMJCA1BZBU8Arh4e+ITGETv5FUb/fjZezZyfrv3mceefX+HOu+MICrANnjBuT9UxlJBuETS9KR9UwxYxYv5cu+8dgLun4ViFhVtXnWt509T+ln+szON0HYA7ve+INfQ4ASTH0ScYQEt2Wp6lPe54BFj902jaM1OZ8/AwEvt2JdjXOngCcEflG0x0wlie/2gmq58x3DhpMx4q1PfG8fmamcwY1dMSPAGofAjuO4w5b03m5eHWTxJCCCHErUB5vXVDufdewvDxvQxjKeo1VOWkcWzXFk7mlJvH9rgGDCbx0Um2T2xVPoQ+8QIDYwwXaPWV5zi1fwvH9h+g+LKpjQdhY54lqonJcltGHoX7tnBsl/UjjWJne2Aa6UWXJ18lIS7UfKFef6WIwszt5m3nnzlHVVuPVek9j6FPjCPMqqdNU5TJSeNrzso8QWFROfp66ye1gXodNaXnKMw5QJbp+GdkUlyqwbQr7uFJ3PlwsuKJViLnMvjhwQSYelavFFGcZTjPTdsrPHMOzRWdeZsO3fkiQ8caPy/Gc/O8+b0zHqfzRdToFM9rdVmkHjf2m/Xqz5PGz8WM5FiCAapPsG+ldftmaCsoyM3jyP7dbNm8my2b95F+vIiqOuN6N38GTH+QxY6Cldws/rXZ9FzjY//Z5nv2mhIcx0cLxtLbF0BLSe4hdmzezY6Ms5b9UnVl4n8nkGj7TCGEEELc5NpVCp+J/lIaBz5YQrlVYODa7xWGPmycw4dyTn4wk1OKylmtk8JnouHC1rfJ3GeVouUeR/iTL9Av3HA1XJ/3Fds+WmtZ34RrS+Gzx3pfry6Fz2vCcu6509QzoaN4/woObdlr98LdNTwJVdV2aiqVa1qY+yTi/jyVLqYAozyTQ5+9TXGRnWQ79wh8u4VSlXtAuca+a07hG4RPbBk1WXl2jw2A+/AlDB8TbQxE88hcOI8LdlJNA6Z+wp2xhnO0JmsVqWu3ONxm0yIIn7OUfp0xvHd73uLANifTB1vBtJUzjel4Z9mUsJ7XZ44ldVYcKiAv5R0mL+zK6j2TGeANVRlrGTWrwOo5GtLfXclsRaZZ4kNq1KcL2JRhu9wsUs2Kj6aSaOy9Mm3XKdZpfdeSwmeiLWDH39by/AbLIvX0JD5/xpQyWMSOpz/l+TTL+tYmKXxCCCFE62pXPVAA+kt7SV9hGzwB1B97m6w80630AMLi42wbtCoNFza/aRs8AegzOb/5IFXGf7pGxhmCspuB33RiB1kFT7te5YCD4Amg/nwbBE+AzwPJ5uCJywdIe/c1+8EThrmenA6erssBNE0ETwD6PcvIKTL9KxTfGNv1BnEEhJlSzTRcyLjW4AlgMEHmk+08F25g8AQQ4qdIoVv1M9nGnsvoAQNRz+xDb2+AEo5sNgQ5nxWY5mPyISTK/Eyz9A1NBE8A+QXM3pBl7knyDQu1pAu2Be1ZNr1gGzwBFKzZTqr55k4Q4UNt17e2Dh064OLiAkB9/bWfYUIIIYSwr30FUJUHSF+xjCo7d+5BQ/EZ8xUqvl3usFnbenQUb3uTzB9PKFcY5B+gxJTK5x5OQFuOE7oO7kOGEGLK2ys/SNYOB6+vTSXTtafpQlzHhT2OzoX26Bx6c06YDx3DbNcaZKI1x4I+dBmYZLv6qhRRY77JEE6X0Td2DJ6vh3K01ll2mOZaiurJG0O7G1INS/LYkaJoej0qtZgzFAOCGW27thVVkP739bzuoOf450JTcOiOh8OiLy1PpVIRERFhnkT34sWLyiZCCCGEuE7tKoCqObO36Qvm/CJqTH8HRtA2w8bPc2FPU8HFdqrKTH/74NfFdm17FRRpKSpQenSt5bjeSNG9CfI0/n0lm/wfHfQ83XA+uIbGoeps+3DvoGzX2KVsS0+WV9xsRv9xEZHxg67hg7iXC3mm4+NByMhF3PPUfLr0jFC0a2NVpZjKQ3y2OYcSALoywJhaW3LsEJusml+Vvj6MG+9v+wgxjQBrY1V5pLaDzDiVSkVsbCwDBgxg/PjxzJw5k4gIwzlw6dIlmURXCCGEaAVXf912I+UVOTlmpW1dLm+Pe9WUe/ALNv2tofLMOdvVN0pkqCUoLjnP1RWGb2XuEfiOWcRdz3/BmIWfMOYPrzBiju0jtrPySY3p93zAoVzL+eIe0IvYSfMZ8+oXDP3DK3S/MwlXZWeOA5qv13DikqVChFfkIOIeW8rYBZ9w15PzCb+mwKwFpWTysyGCMiogfZ2pZ8aWX4BVFT8rvZNjWbZhJqlpz5GxZhZvLJxp+5ge67g8+W1ArVYzbtw4HnjgARITEwkODubKlSscP36cr776ipISmzdACCGEEC3ghl5fXTV9m5cTc8rNPsqgXQ6TqG9H73VQMrHPLOWu4b3slgq/Oico/mQOe7dkUmo9zs/VUAq9x4TZjHnpExImT0LVXCCl387p/3uVH/bnobHuuXX3wbfbIPpNms+YBauIH3PPde5zc9SozQG5tVI+O2hJuyU/h00Oiil4eDfuT57yl6msXjCeoVH+ihLmwhEXFxc8PT3p0qUL3bp1U64WQgghRAto3euqltY50FyyuT3x8nYid0vcpAYRNX06kaZ5inRF5G9bwY5FD7F1ge0jU1EV0jENNftfI2PR42z7dC0ns86hsY4XXX0IipvKiGfnOzHn2QmqtswjdeFM9n61hVNnimwnmnYPIGz4XEY+Nb2ZOaVaR/rXWZjq4uUdzCDdemWRxmEpcfUfk5k7Rm3+vFfl7mP1m++RnPAOCdaPvx4yF3G5HeXl5fG3v/2N1157jY0bN3LmzBkaGhoIDAxk9OjR9O/fX/kUIYQQQlynmyuACgvAPJ9qdZnDi6+2FYGXr2mvNFwuVKxul8qtOvN88LFb8OAGuFJr6c3zD2ujMW7N6Hc/3YKMf+vPcWz5HLL2bEd/zXNvWdNQn/MVp9Y+S+obj7PtgzVk5VnmlMJvEIMmj7N9ikPl1BxexckP57B74Ux2rE0hv8gSlblHJjNwzA0YH5WWYQ56Ji9UrLMuAGFDxZx7elqCp4y1PPpwGsu/1pqDMdFYZmYma9eu5fz58wB4enrSvXt3ZTMhhBBCXKebKoDy6hZpvqiqKTxqnlzXHldPxxeL7sPjMHUoXDf3ewgwX2CfpzRbsb5dyqTcauxMp55TbdbeMD/nW8Y9+fUmrNUnJm6eKjrM0ut54QDnS23XtxwN9fkp5H/0OLv2WdLeVOFx1xBIlqPPWkPWe0/xU7ZlvFVQt9aqUeePn7dy2dXxDbEUNYHuRJvrkVfw854CCZycpNVqOXfuHPX19bi4uBAQ0GLfdEIIIYQwunkCKPdkovqaLgbKOf/jXkUD0FZYLhZ9Og2yWWfWez6DzROeXj/30ffQxbgx/Zn/UKxs0E6V55w293S4RifRo/fVX6a3uMp9FJsDlACixt2YtDNr7l7OHRfXfvPpHq5cem30eecsVRFdryc9VEN5vtUYpFb7tKvwMI1RKilxYkLa5lhtrymR/rwx8fYuImFPbW0tDQ2G+dE7dmzDGupCCCHEbaLVLqlalHsc4U/8hkjjXW597r84ZWe8if58oTmtTxUzmnBTz5CRa7/5DJ066Bru6Nvn2m8+g4eZ7pwXcWrHV4oW7dhPGzhpFax0n/wmkTGO71a7hifh5adc2tIyOb3/hLln0T0ymcGPNlFMwT0C3xgHgXIL0VywCkC6DGp0TuEeR8jk5Yx8eBA+zX6aAnDt2NzZ54PvwN54mf5Zds5+5Un3CFxNJd8d6kV4rCWqqyk3FRhv7wooNndF+tNnuLrRBLm9H05g/ZqZjItpj6MihRBCCHErc4mKijLcqrxRhi9h7Jhow9/1GqryszmXfZTSk3noCcV34GC6DhhEiOlGauUBfli6yMF8UffQ4/m5dDe11ZVz/siPlF8OxK9vf8JDfQwRo64cTX0APp7A5QOkLl6kuEi13U595TnOnzjKpZw0qsrAPewOwgYMJ6pngLGHREfxtlc5YG++KL8kQhOiUfYjBAwcR7gxXqnK3sLZC9ZrNVRmrKWq0noZEJ5MeG/rVCeAQMKGDCbEE8N+HNyBeQ5PAIoo3ZFif56nnnO58+F7CDAPLAN9+TkK87MpL6kFOuAV3ptO4RH4ems49enjnMyx3kBriCDksTcZZJ5QF9BrqCo8RWHOeUOA3DGckK6RBIcE4H4+ha0fNJ6Qxyt+JkHKynD+/elxR4QhJe/KOU7+eNR2HF3JAc4fPmC9BNynEjd/krmXEV05hdn/obgEvKLjCI8MRWUMnPQ6He4ehoNZvO0hDjSaZHU6gxYmE6LXUVNZRGVVGVV5xtcEqML6E9YtAl9zOlw5pz6daf+Y95zPPY8NQqXTUVN+nssVZZSeLzL2Khret7BuEfiY3ltdHofenUeR8pxqCZEDSfk6yRDknN5OwkOHlC3seziJnfMGGnqQStJ46d59bDGumvjub3n5bssbWFWQxZFDRVQFhDKgb0/UAaY3RI+2zt1Qpa/qEEtHbW/UAzbx6QQSleP8AqIZdXdXw7lQfZbUXXm2xSgKT/HS+8p8zYGsz0giGsf/l8m0lTN5NsFQmj0vxc74r1Y0atQohg4dipubG5cuXWL58uXKJkIIIYS4Du0rgGqGviiNA6uWUN7UAP7e8xn6qONepvryTA58vBG/6a/QK8hRADWYHn+aR3dnelzqNZzf9jbH9mUq1xgYL3TNPQpOcRCsXMWxssgjc8E8bOIza91mEv/wOMKazfRxsE+tohdBk59lYFxo8yl8+fYDqC5PbSDuasdQOdiW+/AlDG8m7VOTtZaMwiGMGGl4f5oMoJSL7dEVceq7pZw8aCco5+rOq/rLeWSte5XzZ+z2ZV2/R5LY+UdjIHQ1AVRTAUmkmhWrppKoDIKtaQvY8W4qvrMmk+hrZxtGL294jolRioXNsfs6mthfBQmghBBCiFtXs0lHbUqvQ6+Yk6hep6HqzAEyP32WHe81EzwBZC8i9b21nMwvR2/VS6UvP8epbcvY8dfXKC3NRNvktWQaJ5c+aygLnXOOqss6m21Rr0Nbfo78/WvY+5fHHQdPN4Mzqzi8eCap36aRX1SOVlEWTX+lnNKcA2R++mIbBU8AJyhdP4cd763iWGYeVZd1tnNt6XXUlBqP/6eNA56Wpt8zj12fpHBKcU7V6zRU5Wwn4+8zSV37lW35cLuOcjbzBIVF5Wiv2DvXddSU5nFq2wq2/WWO4+AJoDCN01l5FJdq0F5RHB/jtjRFmWR9tYgdi+e1XvDUWvILmD1zFat35lBi3d1cp0dbfpb0r9cy+zdreX5dswddCCGEEKJFtaseqJrMZexd37g4hBBCCOdID5QQQgjRutpXD5QQQgghhBBCtGMSQAkhxC2kvLycuro6ADw8PIiIcDwnnhBCCCGungRQQghxC7l06RI1NYa6m76+vsTHxyubCCGEEOI6SAAlhBC3kHPnznHu3DkaGhpwdXVl0KBB/O53v2PYsGEMGDAAtVo5q5YQQgghroYEUEIIcYvZvXs3BQUF5iCqS5cuJCUl8cADD5CQkKBsLoQQQoirIAGUEELcYi5dusSnn35KamoqxcXF6G3mYRBCCCHE9bjxZcyFEEIIIYQQ4iYhPVBCCCGEEEII4SQJoIQQQgghhBDCSRJACSGEEEIIIYSTJIASQgghhBBCCCdJACWEEEIIIYQQTpIASgghhBBCCCGcJAGUEEIIIYQQQjhJAighhBBCCCGEcJIEUEIIIYQQQgjhJAmghBBCCCGEEMJJEkAJIYQQQgghhJMkgBJCCCGEEEIIJ0kAJYQQQgghhBBOkgBKCCGEEEIIIZwkAZQQQgghhBBCOEkCKCGEEEIIIYRwkgRQQgghhBBCCOEkCaCEEEIIIYQQwkluAQEBryoXCiGEEOLa9ejRg6lTp+Lr60teXp5ytRBCNOuOO+5g8uTJeHl5cebMGeVqcQO5REVFNSgXinvo8fxcuncEyCNzwTwuKJtchS5PbSAuUrnUonjbQxzYo1zqrAC84pMJ8i2nNCOFmivK9eL2IefCDdExiZA7oyF/C8U555Rrr0/P+dzz2CC8AC4fIHXxIjTKNrejvkHMeaA7weWn+PL9UrKV62+wHj16MGHCBPz9/dHr9ezdu5c9e675S/4W5M7Ep2NJDLhM+td5bDquXH97i46O5te//jV+fn7KVWYHDx4kJSVFudhGS21H3BixsbGMGzcOPz8/tFote/fuJTU1VdmsXYiKiuLuu+8mPDwcT09PXF1dqays5J///OctewNJUvhuahGEPrmceyYl02/sdO750xK6BCnbiNuDnAs3RM95DH1+NoNGjmPQY0sZOjlJ2UK0tMFxrP/gCWY8MIKJTzzB6g0DGapscwN16tSJMWPG4O/vD0BJSQlZWVnKZrcxFS+ve5qXnxjLuAce5OUPJvPycGUbIcSpU6coLi6moaEBlUrFsGHDSEhIUDa74QYPHsyUKVPo2bMn3t7euLreHqGF9EDZ1bI9UK5BcXTwsF0W+uArxHY2/H3NPVB+s0n4UxLW18lVP73GD99mWi253UXge/dUIuKiCenkwYV1MzmZo2xzA4QnE3n3EMIiowio2MK2D9coW1wdORduiIBHv+DO3lYfbv0JDiycT7F1o+shPVCNJP7lMVaMCbVaUkLqgo+Zu9lq0Q2iUqmYMmUK0dHRuLi4UFhYyFdffcWlS5eUTe3qnRzNk8kJxMeEEeyrslqjR1tdh668gIKCLL6clcUmq7WNqZj25yGMTogmuos7P7+/itlfKNvcIIMHk/L+MNRWi0r2rOLeP1ZYLbm9Wfcc6XQ69u/fT1lZmU2b4uJiCgoKbJYpqVQqunfvTocOHWyWJyQkEBlpSIuRHqj2rVOnTkyaNImwsDAAKioq2LRpU7vp1YmOjmbixInmG0YajYYTJ06Qn5/PlStXOHXqFFqtVvm0W8LtESbeYPWlmWgv2j70tcpW16CyCK3edpG28pTtgtteNGHDBhMZHoqXh+2PyA0Vcw+xcb0ICvCgRW7WyLlwQ9RUlNsuuHKZGtslooWlFykvtDUUt5P7BCNGjCAqKgoXFxdqampIS0tzLniKDOKNdbP4fMGDjB7YVRE8Abij8lbhq46md0J/BijWNhbM0HsTGBAVTKNN3WhplVTV2S6qLFe+p8KkoaGBsrIyjhw5YvNoLngC0Gq1ZGVlNXquXq/4sRDt1qVLl9i2bRuVlZUA+Pn5MWzYMFSq9vHBjo2NNaeIlpeX89VXX5GSksLBgwfJysq6ZYMnJIC62X1F1tYTaIzfhZqcrziy53a/P327knPhRtBu+YoTRRrqgfor5zixadlt30PU6v66nS+PGy+46yrIXreZ1/OVjdpebGwsAwYMwNXVlfr6eg4dOsTBgweVzRqLVLPioycYF+NjXKCnqugs2Rn72LJ5t+GxP4u83CKqqm+FC98slm/IMQZReqqOb2bpQmUbIYTJyZMnSU9PR6/X4+LiQteuXbnrrruUzW6IkJAQXFxcaGhoICcnp930jLUFCaBucvof55O68CG2LniI1E/Xciv8vIprI+fCDaDfzun3HmfbgofYtuhZTmdL+NT6NCyevoqEhHdIGLyKR5e0j2OemJiIj48hCLp48SK7d+9WNrFr4ryxJAYY/1GVw5cvLmPU+PU8OiuNlxZkGB7PbGbyw58yavgyEh5Yz4eKbdxsUpekMGrwOyQkLGPU9Cza57B4IdqPffv2kZubS0NDA+7u7gwYMICIiAhlszbXsWNHAOrq6qiouL16kiWAEkIIIa5DYmIi4eHhAOh0Og4dOuRk6kpXJg4MNv6tJfvrFBZ/r2iilA/NJ28JIW41hw8fprq6GgB/f38GDGg+mbet1NXVUVVVpVx8S7vxRSSGL2HsmGgACrc+xOF9hrLA4fffT1RMBD7G8dn1unJKj/yLY5u/ajTWw8Rn8icMjTPcAWy6MMN0Bi1MJgRHA7PtFZHwQRU3nR5JQwgL8MHdFajXUVN+mlPfLOZ8rmIsRDOsS5s3va/WrPfLHg2nPn382ookdEyiy6/GERUdjk9HD3NkXa/ToLl0inP7N5Kf2YYDDdzjCBjzID369sbPz8NwvI3qdTpqdeVUnfmRY+vWYH2ZYn0OXLX8FLZ+YK+Ygw+ukUmE3HEHXbpGEuDnTQdP62Oko6Y8m7O7HR0jq/Ptqjl6T1vvXHANTyZ8+Gi6RofiZfU69VfKqcw/xfn9y7lwlee788YR++eZRHob/lW671kytjZTGtxvJgl/GmcsoFHOyQ9mcspuSpfhM9x9xC8IDQhAZar9oNdRU3meCwdSOLVnL/WKZ9mw+r6yy+E51ATPQQSNvJ/uinO9XqdDe6UWlZ+P4T2w+13VQh5JYucfB+LLWTYlrOf14T1Z8ad7SVSroE5LwcHv+d9ZOaQCUxY+yOx7o/F1A6oKSP1oLXPtveRIFROTezH6jp5ER6kJ9lJhnbavra6g5EQmW9ansbypoMG8bw5UHWLpqO18plzeyEDWZyQRDXBiMwmPZEGkP3OeGcHEhGiCfd0NzbQaSnIPsm5VGqud+l6GRx55hJ49ewJw5swZPv74Y2UTB6z2yXTslU2cMG3lTJ5NMAzivmqnt5Pw0CHlUl7e8BwTo7DZL3WCmjmzkhgaG4SvynS8Ksj7z24+XJLDFrufOzUrdk4l0eEbWEH6X50pcmG1nZI0Xrp3H1twZ8qLI5g8KpboAOPJVaelKj+Lf/1jO4s3KLdhh/kcsDf2zA4Hx6slWReR0Gq1bN68mSNHjiibXbPp06cTHW0469q8iETPRB5OGkt8n0i6qsPw8fTAw82yWqcpozA3nW9XL+Pbpn6/fr2IL5+KxwfQHPmQKS9sBGIYO+sxHryrL2GBPobt1unQlOWTvmEZS77JVW7FRtiI6cx8YCzx3QLN155Nyf/3fcxaqlxq1HMCc2dMIDEmjEDFxnQ1Oqgto/Do98x6c53NuuY89NBD9O3bFxcXF4qLi/nHP/5BSUmJslmbmTNnDp06dWqV87S9a1c9UG6u4D5kESOen02/WEvwBODqEUBIwlTueWYept+5NuMeR+jjyxkxOYnwIGPwBODqgVdQL/o9vpz44b0UT7pZ9CJo8nJGPz+buLhofK2CJwBXDx98w+OInfwnehiuD1qda7953PnnV7jz7jiCAmyDJwBXDw9UHUMJ6RZB25wKkxj41HQGJsQRFhqAyiqowLg/PqFxxE5+hdG/n41X2+xUy3MfTPgTnzD699OJjY3AR/E63T0DCOo5iLjHX6SL1fKWtYWzuZYQIajvJJq7pHEfMshSfbDoP5y1dxEXlEyP//qAEZOTiAy1Cp4A3D3wCoqm+5i5jH5+ESFtWP7d/Y5XGPrn+STYOdddPTzwMgVPbcYf9SNqVixINgRPAG4q1AnjmTMPhi6YzNzxxuAJwFfN0N8n86y9ee6eSOblJ8YydGA06gDb4AlA5e2PeuAwZrz5B1L+EmRTla3VeahQ3xvH52tmMmNUT0vwBKDyIbjvMOa85Vx57R49etCli+ETodfrOXnypLKJk4KJnqlc1n5M+ctU1q+cyriBoZbgCUDlT/TdybyxKolp9s6D1uChIqRvV5ZtfprnHxhoCZ4wnK++UQOZ8ueZrJhu/aTG1A8NJuUfpnOguW8a0RIenDGP6fffTXzPSAJ9bIMnAA+fQCIHjGX2O5/x9oxE25VNGfwkb3/2LnPvTyQyxBg8Abh54BMSw8hZb7PyWUfbC2PCC6tZ+fzD3N3TueDJsTBGznmXL5fOZuwAw2tU8vDywMMvjMiuxlLMVyE7O5srVwyTPAYEBNCnTx9lE9FG3AICAl5VLmxT3cYS0z0QAF2HRHom9MADoF5D1cmDnMw8SmVtCH7BnrgCLp4RdImoI+9w43k1PPo9QNcww8lafepLLjictDmeLqN64w2gu0B+6l5si+J1I2joEAI9AGqh+y/pEeUFQH3lOfL+s5+C/EpcA7vg7QHgRsfucdSd/I5yQ6GUZvn+YgphxhuGTe+rtXpqG6Dy3EkunTY9SnDtHIG3O0AtZUf+SWmp8nmO9KLLk69yRy8/S2/KlSKKsn7kTNYJLp0uQesCrh5+qDpc7bavUeRchky/G3/jl1/9lSJKco6Sd+yo4fUW19BQW4uLpyfu9UWcU7x3DXVeVJeedXB8dBQf/Dd52dbHz+px8jBVhfYK1hvPl3odNWUXKD13kvzMwxQZ98fVsyOeXh64AK5+3enc+QpnMq2n9nRD66KhzPr/0oYQGuJpWF2eybEfDzben9MnuXQ6i9Kco+gaZQO18LngnkSPZ+bSu4vhdWA8189l7ufciZNcKqiktr4ON28/PNzKKdr5by4rNtFSaqt6EvqLCEPg5OWP/mQKZQ4/V3F0vf8+gg0fT0r/8y7nTikaB00nfs4UIv1MJ5WG0pNHOZ15mKKCSmpVXnT08cQFcPEIpsugRKoO/RtNo2MO6L24cvmC7Xtk/V5WZpN74LDyWXa5D1/C8Pt642k84PWV5yg4kU5+1gnD8XZ1Q+VtdcPG7ndVC4nrzm/v6owKLZeDoxkQ7o22KJM9h6sJiQxEhSsqvQd9hsQS5q6n5NB+jtWqCfd3BXd/VPVpbPxBsc0R/fhdb39Dj8658+SfPEbGoTxO5pyhUOOKj58/3h0A3PHt3ot+rhlsylBsA8BbS5hLKfk5ZzhpelxyJTLS33ADRXeRHz/Jo/n7np2Z8rvuBAK4dWTs6AHGnk4tJblH+fHHbPIqXAkJ80flCrj706dvLQfXFTSZMjdo0CC6d++Oi4sLlZWVpKamXkUqi45hk+6gqzeAB2E9AvE+ncOPTv0eWKiCanEvOWc5PjnFuIWrCewAoCVvfyppmVbHz/px9DQ70hvXjhwx5W76BABo0A0awoPDOhmOd10FBUeOknogh8JaX8I6eRuWe3empzqbz75XbktHYJcayk9b/7+2+1fwwwG+s9d5b8OXCb+NI1wF1HWg568S6B1k+HBUFWSRsfc4xy/VEhgabPwO9CQ8zhf9R7nYLeUxfCCrXxpJV2PcpC3JYc+6zXz4dTo/F9UT0k1NoDmm0nBk3Rr+78sD7Nh7npNnmuynvm6BgYH06dMHlUpFXV0dOTk5FBYWKptds/j4eAIDDdddFy9eJDu77aaijh0zmUFhHqDTUHiukPyTBzn282lO5xVQoffAN6AjHq6Aqxed+sYSnbuJveeVWwH6JDH5F53xAGor3UiaMIoYY0aGrjifowcO8vPZCtyCO+NvvE7zj4zEa++/OKj4eCY++w5zR6kN157oKMtJI2X9P/jX7lzKPIIID/M37BNATRbfvvsxm37YT1rGaQoUv7FhT73FG8kxhqknACoLyc0+wpFjuZzOO01BVR3UuuDu6YWHJpcvvk2z3UAzKioq6NOnD76+vri6ulJbW8vRo0eVzdqMaexna5yn7V27SuEz0V9K48AHSyg3BNkAuPZ7haEPxxlPSvtpOq2Twmei4cLWt8ncZ/Ut7x5H+JMv0C/c8LGrz/uKbR+ttaxvwrWl8Nljva9Xl7blNWE599xpmk9FR/H+FRzaYj+FyTU8CVXVdmocXsi2jICpn3BnrOE9rMlaReraLXb3x3nXfnwsBuETW0ZNVp7DfXEfvoThY6KNPWJ5ZC6cxwUHqaagOO+vJe3Lrmt9rT6EPP4Bg2JM+bLl5H+zjKz/2Lui8cG15yBUOXtbsVx3BOFzltLPeHOuJnMZe9fvVTYyiJzHXU8NNqR36U9wYNF8im2OewShTy5mYDfDa7P33QJAt9kkPJZEkPEQ6HPXsuOTrxSNHLiW9zJoNgnPmubt0lG6bxkZW+38kLbVPFDKNDltDp/9JoWl+SoWp/yB0VbdQ1UZa3l0VgEFs8aTOjMWFVCV9imjni6yNAJIDmVGeSmr9zj6IPjw8oaZTIwy9mac3k7yQ4eaDFbMrPf3WlL4TLQF7PjbWp63SvVST0/i82dMx6KIHU9/yvN23hqTadOmERMTA0BeXh5r1jjx/ltJfPFBlj4QbelprdOQ930Kiz8oIN1eb6pTrNPmnE2Rs2VJ4bMoOZTC316zTdUb+pfHWGaal6v8EIvHbOdLy2oHrmX/7KUCVnBkzVpmvGv1qRg+kPVvJRGtAtByZNV7zFhp9RSjGatmMWeg4bdGe3o7zz90yLaYRaQ/i9+faTn3TWmfbeBWTuGLv+9BwvJT2XrEwYW2+kEWvfMk8YbK2FbpeQpWKXxmukL2r36TN61T9dTTefvdh4k1RjT5W+5j1v9ZVsPDvL1hunG9jvx/L2LW0nTrBoSNeJG3nr8bw0xMkPvP+3jmA5smRvHM+2ARI43nTOGOJbzwzi4cvNJrlpyczMCBA3FxcaG0tJQvvvjihqXxSQpfO6K/tJf0FY0vcOqPvU1Wns74rwDC4uNsG7QqDRc2v2kbPAHoMzm/+SCmmxmukXHXOM7lBvCbTuwgq+Bp16sccBA8AdSfb/3gCeIICDN9HWq4kHG9wVNLOYCmieAJQL9nGTnm68dQfA3XUzeHnnOJNQVPaDi9dq6D4AlAQ32rBk8A5yg8YRn35BUzGlORMiWvO3qbL/rrz/xHETwB/Z4k1hg8oTvBETvfLQCcWUHGN5nm8XTuMfcQbvwBbw0B9w4xpx3WZH5oP3i6gQp2fc/SfAAtVaavXYDqLNa/aeyRqdRiXuVmJ281paiJ4AlAw+tLfrQETMGhjLZt0Lq0Z9n0gm3wBFCwZjup5gAhiPChtuutqVQq8wSSDQ0NFBdf/RTK6W9uZMWeIstYTjcfosdPZcWGP/D9msHMSbZzbNucnoJtH/HEzMbjnFLfz7S8hwFB9LZd3YoqSH93lW3wBLDnEJsyTctUhPeyNzYsmmG9TL81JWSsUQRPAPkVPJ9i+U6gi5ppti3ENTj83UbHwRNAwUbmf5dl/m7xCYkxBy5Nqsxi419m2AZPAAVr2J9jlRauftBmNdMSiTF1F5UdZqMieAIo3P0m3x+zfBF27q7YhlkCkeadzedwKwRPACUlJdTVGSZTU6lUhITcmCvP4OBg3NwsOZgNDTe2P6atta8AqvIA6SuWUWX3N1dD8RnLHU7fLnfYrG09Ooq3vUnmjyeUKwzyD1BiymVyDyegjcYJXS/3IUMIMf0ulx8ka4eD19emMtGav+d86DIwyXZ1u3YOvfmX1oeOTn3jtw8Bd/Y3pxvU523hRDsoxa3flWbpwfPuTpd+igYAjCOqrym00nA+o3GPUcDA3uY7+1VHNjQOsKwd/pBT5q+YCMISrrEYSbMmEdnTtO0iTn+/XbH+BqvO5J8v2stfhIK921l+zb0idqRpLReovv62vUOtqoL0v6/ndQc9/z8XmsrxuuPhsFALqNVqPDwMAfr1lPH97I+f8vyaDPKsU4vcVAT3HcaMBXPJ2PYgi2f5t+04MSslOz9m1p9L7fcO5hdx3tmMxRajJy9lLbMddPZ9VmC5G+/hbe9z7I+vsVANVQWkO+qAWVVkec2+QW14ft7mLussqcr+gTRxD8OgJpeNC/7Ehw7uQ20sbCKXPaSjMXUPNPlH2KpYbbKuwBIK+QQ5GuxXxmXzDbpI4p9zNObq+pSVlVFbazhCHh4e5ps4ba1Hjx74+hpuYVZVVTk1ufOtpF0FUDVn9joInozyiyx3vgMjbLtuW815LuxpKrjYTlWZ6W8f/FpvdH2LCoo09T5B6dG1rdyj4LxL2ZaeHq+42Yz+4yIi4we1rxMVH1xD41B1tn24d1C2uxkMJqSL6edDx/kDzqWgtjr9WvJzzfcgCU+YpGgA9BtMqOkiqPwop48p1hNHQCdLz1pJ9gHFeqVzlJ63VBf0CR5is7bFRHfHz3TzojSbolbv2b06VcePslq5EICzpDsIrJwSqWL0eH/G2TxUzRYJaRVVeaQ6uPi+Gh07dkRlrI5xvWV8U9/dzeRRy3j9o31kFymOc0A0o2fOZH1KEs86UdiipVVWVdgPngAoYPaodwzzcl1jFcGrV8CRhW19o8dwx1+0sJ6JjBw90vZhyqV2Vv1lyppKV186i/vuu4/77rvPfjrg1XJ4Kmwkw6oIUtjoV/ny74uYOyneuV40J9XU1JgDKFdXV/P8c61NrVYzYMAAhgwZwtSpUxk1ahQdOnRAr9dz7NixG5ZGeKO0r+vS5uQVtU7+/3W6XN4e96op9+BnmnoEDZVnmikT3Yb0ez7gkNUXkHtAL2InzWfMq18w9A+v0P3OJFxvREaLewS+YxZx1/NfMGbhJ4z5wyuMmGP7iL36gjrtQG/8zKlqRVQ2CkJunPJD2ebeCdduv7D0mBrZ9C6d3G7nJkAvfK1eW5UT46Q1Jea7IXgFGOb1aXGRoZabP5oymzL8txp1gpo31vyWnanPkfH1H1i8cCZv2DyG3bBelZbg4mIqudJS9Gx6P41Hx79H8qy1bMo4S5XVxZpKPZBpTlYHFE3RojMdV181icmK1Saz1Jbzs6SIxsld4lrE/HI2r/79S75O+Y7vlr7KvOfm2T4mxbbRDXJAY0nN84kcwFiblRbTLbl5lF10XCho4//9g/Riq21GxDN2xiJWp3zJZ8sXMe/xsdxMGf7WEhISeOCBB7j33nvp1asXbm5uXLp0iX//+9/s2rVL2fyWd3MFUHrrZPz2o6mxMTeD+nb1Ak5Q/Mkc9m7JpNR6rIqroVR4jwmzGfPSJyRMnoR1Jd1WFZRM7DNLuWt4r0Zl3m8ttdQ31QPc1o59Q76pQ8g9ii42KXWTiDSP2zrH2V32epd86NBW54hoZOgzY/no/amM6xuMVIi+egUZBbw+az2jHlrFZxlWY6RUXZn44jAm2jYXVyWL9FzTl10wCdMHNk4Ti1Sz4iFDkRSAkuzjbFE0EVfLUC787WcnkBhhVWr8RvruMOZkh8B4HrRT6jxs0iIm9DH93pRx8ocmgoWCjbz6+CLW7M9HY91T5eZDYLd4Rk6Zy7spX7LyuQk3bSBl4u7uTkBAANHR0fhZ7sTeNm6ua8HOgTcm3aMZXoZavKLFaKjZ/xoZix5n26drOZl1zvomEbj6EBQ3lRHPzm+DOcEGETV9OpGmoTa6IvK3rWDHoofYusD2kdmSY0MEcIDzJ0yDkjzoEmeVxjfkF4QZ3/v6vDTOO0iDc5hp4Yx2dWPhJpM8jAXT4wg2XiBpCzLZ9P5KHk0wpXqZHtvJUz5X2MqvYOmsT3k+5awliAruz8R2PGfUzWDpst3kGb8gVFFJLP4+mcVPhzJuvD8z5o1g/ZqpJJq+98sP8emSJsbRCKeEPfUiTw4Ls4w5OrOfdf83nxnG9Drz44PDbZdtVPAhH+42/Xh7EPnL+Xy29EWm3z+SkaMfZvZrK/m/xy3V/jRHNrLi31bPtyuddW/OYkryMyz7cheHz5Q1CqYiR8/m7b/PpXG41n6lpKTw2muvsXz5cvbv3091dTUdOnSgd+/ejB8/Xtn8lndzBVBhAeYPHtXtJfUlAi9fyziLy61RcqXFlVt15vng05LJuS1KQ33OV5xa+yypbzzOtg/WkJWnsVzX+g1i0ORxtk9paf3up5upXJr+HMeWzyFrz3b09iq53ZQ01Jp7nQLxaWejpLV7DmC+bIkcZKyM50OXuF7GLy8dhVmORoDnoTFPVhWKrxPlwXzCLGMDNaVO5Pxdiyu1lnPY9Spz/W8SM5L7Y84Szt/O88lbef0jDa10RG+Yy5cvm8ciuLm5mefWaQ2pC7eSYR5i4IPvzZz72A4MvbcnaqseEFVwT0Y/8RhvLJzJnIcTiDaV96zK4cuF2/lMbpBdp3im3xljCZ6OfMh/zXmTNVsOt0qlOuclMjLW+iLIg8Ced/PwrHnMe246ExIi8TGeJ5qcb1nywsar2N9ctn6yhPlzpjEl+Rle/WQrWYWWu8EeEWOZ/Xy8zTOc4eXlRYcOhhv3dXV1lJdbxu62BVPa3p49e6itrcXFxYUuXbqYS+PfLm6qAMqrW6S5B6qm8ChNZRu5ekYoF5m5D49zWBb5qrnfQ4D5Avs8rXXN1bIyKb9k+RB36jnVZm37pKE+P4X8jx5n1z5LNUZVeFyr5kqrosMsvZ4XDnD+lrsJmUa5+TUF0ClukO3qG61yLafN0xdE0GVIBLhPooupCFJ1Nvk/OrpXuZdKqwvO4N7NvbZBhEWaziYdpacclHS6XpfKLOO1gsOb+C7qRZeRlgqJNw9/4s3HEfIO2ikRfYuoqKhApzOcn25ubq08mLuCqmrlMnFNImOZc29Xw3d7VQ5bduZQUmV9S1aPtvws6V9/yqOjUljsoFqjuBrWJb41nEy7mkCk9YQ99RgjIwxhnSZnF/tzymwzXup0aM4dZuvKZ5jy7IrrGAeXS/qXy/jTjFms+9nyH4RFjbRp5YzAwEBzAFVbW0t19Y35Yjh58qS5cI5KpTJX5Ltd3DwBlHuyVcnics7/2HhiTW2F5ULKp5ODi6Xe8xlsnvD0+rmPvocuxo3pz/yHq58F5MYozzltvgvuGp1Ej96t+cPfsvR55ywXoK7NpU/uRWNTJfHqXqe7l3PtXfvNp/vV1By4YHUR3WYVJe05R9Fpq+kBBkyli+mGQLugoTjLcq4G9RiH+92W+dZqcnfQ1L23ohxLgphv3/sJaOqDf+dDRJm+YqqzueB4nPD1ycu2jO/zdFSi3Qffyc8TF3kz9lD5YKzs3Qx3ZqxMuKlLQ5eUlFBZacgfdXFxoVOnTsomLScylmhzr1MFxSdtV9sqwFLJ25+QHrZrb3fqJ/rT23hnrCDte16al8K9o96zSi1dxtAx65n9ZtEt12t643R0bsyTeiTzxrZVEYkwfpNg6hUr5PAnS3jz2WlMecAqnTD5Aab8fj7LlPNLXbNC1uRbhY7OHBOFwMBA8/xL1dXVnD59WtmkTVjPR+Xu7k5wsDnv4LZwcwRQ7nGEP/EbIo0li/W5/+KUne50/flCc1qfKmY04YoLQdd+8xk6dVCLfTBd+81n8DBTyk8Rp3Y0noem3fppAyeteh66T36TyBjH98Jdw5PwavUxggG4dmzu3fHBd2Bvy135snPN5kqXXrAECCF3ziXA02a1UQA+MY2Dbo3Vc+kyqNE5hXscIZOXM/LhQfhczacpJ5tyUxdqx/70Hu1gYujQe1r9uGu3bOeC6YaYRzRxM14hJNTR++CDa8972rZX5Mc9nDfdYOs8iIEDTJfc9m+k2Ni/l3zTc73jGPS72XjZCaJc+83jzrG9jDdWdBT/tLbJwOz6pHAhz3TW+hD5y3mKfepF0KPLuCsuANChb6qrvV0qoMDqYxN9R+MB+up7e7IiZRZzEm7M/CUt6dKlS+YJJIOCgq4ujSU5lGkJyoV29A1l8btj6W262Cr5mS1fKNoopJ+1lBSOHj6WGX1tVhu5M+Vh5ZfarW+02nLe+QYE39SVIG8euZSax6r60GPwg41Ke8fcP4+VS+cx0jT5easbSpg567YjPt2Ve3SV1PHENzsXaCLz+lnmkdKU2rmYbYZarTZXAC0sLESrbR8DWm43LlFRUTd26uDhSxg7xviDU6+hKj+bc9lHKT2Zh55QfAcOpuuAQYSYJjOsPMAPSxc5mC/qHno8P5fupra6cs4f+ZHyy4H49e1PeKiPIWLUlaOpD8DHE7h8gNTFixQX4bbbqa88x/kTR7mUk0ZVGbiH3UHYgOFE9QywXHBte5UD9uaL8ksiNCEaZT9JwMBxhBvjlarsLZy9YL1WQ2XGWqqUA+PDkwnvbRmjYRBI2JDBhHhi2I+DOzDPAQlAEaU7UuyUeAZ6zuXOh+8hwOq7Sl9+jsL8bMpLaoEOeIX3plN4BL7eGk59+jgnm5pr4bpNZ9DCZEL0Omoqi6isKqMq77wlKA7rT1i3CMsEiJRz6tOZze9T0GwSnk3CfJlQr6E0N5vC80XUE4hfz2hCw0JRXUhh6weKyWHcpxI3f5K5lxFdOYXZ/6G4BLyi4wiPDEVlDJz0Oh3uxlvvxdse4kCTaR8+BDy6nDutev705ee4cPIolZfBNbg7YZFRBATUctrecW/hc8H9zkUMndDLpkiLtvQcRacM+wOB+EWHE9QlAh+PPDIXzMPmlG1lPpM/YWicIqi7uIUdy1c1mcoLhl7noY9a3Tixfv89Qgno0Zsupu8GQJ+fwp4P1tjZbgS+d4/DTxmAdxlCv97GD3N5JscOnbdZXXt+C0XZiqkCFOdk/eVznD5ylBqP7nTt3wtf03u47R9UDplu+C6y+13VQh5JYucfB+ILVGWsZdQsy6w/L294jolRAGfZZD3PTxPPUc97kJSHLYGEtiSPIwfPUoI/vQfEEh1qOtP0aLXuGKZSUmzfaOLTCSQqr2sCohl1tzEFq/osqbvysJmBqfAUL72vzLcdyPqMJEOPV9Uhlo7azmeKFibTVs7kWWNwl5fyDpMXKltY9O3blwkTJuDl5UV9fT0//PAD27ZtUzazb8FkMpK7glZLVUkBxeUV5J2uwJzgExBK7yg16jB/VKbgqa6C9PdXOZxE1mz4YFL+alUmvk5DQXYOP5+uQIcP6r7RREcG45u/nYSHDtk+1+Z9b/4YNCk5mjcSlHemfeg9MoFobwAteft/JNvmjkUJ6Qvy2GS9CDUrdk4l0ReH54qZ6bjaOTcBmDmW1Flxlu+78iLySiyfrKrCsxQY96cyL4fUtApSj5tXt7ro6Gh+/etf4+fnh1arZfPmzRw5ckTZ7JpNnz7dHOgfPHiQlBRH40hb1tjXPmNugmWcoKYwi+PHCtH4hRHbK5Yw881CHbo6D0OPleYwH06ZT6PZm369iC+fMhZ3cNTGCQ8v/prp/SwXQZrCfKsKwJe5mFto/M69zNmDGWTsSMdhX5Rpn3Q6NGWFlFaWkp9fZvw8exAYGUOPbmH4mP47XT5bF85i2UGbrTQpLi6OX/3qV3h5eaHT6di2bRvp6deeWHi95syZQ6dOnairqyM1NZWdO3cqm9yy2lcA1Qx9URoHVi2hvKkB/MqLJYX68kwOfLwRv+mv0CvI0UXJYHr8aR7dnbnzX6/h/La3ObYvU7nGoOd87nls0FXesXcQrFzFsbJo5mK320ziHx5HmCnodMjBPrUoYwClXGyProhT3y3l5EE7Qasd7sOXMLy51M18OwGUk8/VZK0lo3AII0Ya3p/mAyjAPYkez8ymu+OOP8fHvRXOBfc75jPovkE2AbV9TW+nVUTO466nBmOdYV2651kytjk3h5n7Ha8weGJcs72Emqw1pK1NsRM80ejGirNqMpexd33jnjL3IYsYOt42aLXQUbxvGQe2elj+T7vfVS2kiWDoWgIo8OHldU8wMcb+qwNDIHBk3XoK7p7JOHvbN7K+kHfaaXtBQesEUAC//e1v6datGwAXLlzgk08+ce6usNWFvlOq8tjy/kZe2qBcYd/QBQ+yODnawTlmZPdYtWAAdbWvERycCy0YQOHDs6umMm2g8z2gVaf38emCNFa3QSB1qwZQqB9k0eIniW+q1oqukP2rv8fnsenE+zQRHLVQAMXgJ3n7vx4ktql9slanIT/tK5a8ua5xIGW9T83R5LPrk1dY8t3VjQSbNGkS/fr1w8XFheLiYv7xj3/c0Alsb+cAqpnLiTam16FXlA6u12moOnOAzE+fZcd7zQRPANmLSH1vLSfzy21SX/Tl5zi1bRk7/voapaWZaJu8Cknj5NJn2fvVFk7lnKPqsiKNpl6Htvwc+fvXsPcvjzsOnm4GZ1ZxePFMUr9NI7+oHK1iqi39lXJKcw6Q+emLjS/iW9xRzmaeoLCoHO0Ve+eCjprSPE5tW8G2v8xxOngC0O+Zx473VpGVU0SN8jVeLqIwM4XUTxsHTxifu+uTFE4pzql6nYaqnO1k/H0mqWu/Qmv/qtsx/XZO/nUmqdsOUFxu+3rrdTo0RZlkrX+7DY67gf7gIn76y2v8tOsAhaWaRqlj+stFFGdtJ+Pvb7Zt8ASQv5azF63+rT/B6V3OBU8A+oOvkfqXRWTsP0HVZZ1NhfJ6XTmlWab30VHw1PL0P85n7ycp5BdpLO+9XocmP40D7z3Fga2tVMSiTWh4/eGVLP76EHnlisH5VSVk79zI60+sYsZfK9pJNdXrk5WVZa7G16lTJxITnSxOfCiDHRk55J0uoapaS6OYq06PtrqCguOH2PTueySPcj54AkhduJHJL65nx/ESqmy+oAzvQ17GVhYvaBw83fo0FBRrLOdenR5ttdbysDP/gW/UMOa8m8Q0S/aVuFoFG5n//BLW7c+lzLpSQ50OXWU+h7d8yPynZ/DmN4bPUpvIL6TM+qJAp0NXY3k04uZD5N3TeeutximInMng8LF88os19p+r06EpzGL/l8t4Zsqsqw6eoqOj6dq1Ky4uLtTX15OdnX1Dg6fbXbvqgXJ0p1YIIYRor1QqFY8++iiRkYar68LCQtavXy8XN+3U0AWTWZxsTAEtz2T5M1vt9yz19WHGb+7lsfHR5t7vkj2ruPePNrnRLe6W7YFqdxKZ+/f5jDVV4TuyhhdesNOzBMQMfpgHH5/EyG6m/qUy0t+Zxqs7FA1b0UMPPUTfvn1xcXFpN98x0gMlhBBCiGui1Wo5ePAgNTWGEYadOnVi6FBl6QzRPnTlyTHG4AkNR/7hIHgCOK5h9YKNrM+0dA0Gh19tOqJot6Y+bC5hTk0WXzkIngBy09axZM63ZFnK59LZbgXV1pGQkECPHj1wcXFBr9dz9OjRGx483e4kgBJCCCGu08GDB/n555+pr6/H1dWV2NhYEhKcKbEn2tT4roSbCxGVkLfKdnVzqsrkovVWMbJnZ/PEvpTks852dTM0XEMBvWvSqVMn7rrrLlQqFQ0NDeTm5rJv3z5lsxtCozGMh3F1dcXb2/zBui1IACWEEEK0gO+//57z5w1VGD09Pbnnnnvo0UMmYWpXMi9bjbsLJnqWzdpG1A8NZlxfUxkODXkZyoIU4maVZT0OKziS6U3Wsw9jwosjiTVVBKs5y+F/Kpq0ApVKxbhx4wgMNFS5KCoqYvv27cpmN0xxcTENDQ24uLjQo0ePq5vG4SbnFhAQ8KpyYZvqNpaY7oYTQ1+UxtnjZ5UthBBCiHavrq6OqqoqunXrhqenJyqVirCwMM6cOUN1tWlCMnFDVZbRY+wg+gS4Ah6EDbqTqWM70q+/J5FetYT19KRHT3/GTunPjLm/4k8TeuFrvNWszd3FG/OLaO0QKjAwkD59+qBSqaivr6e4uBh/f3/CwsLMDzc3N6qqbIr3N6JSqejVqxdqtdrmuREREfj7GyoQXrx4kezs23O6YM2VKIaPiMHfFejQif73/ZrhA3oR21ONh18noqKjiOo/nImTHuaJp39PUg/zHDnkb3+X//3p6opAXC2VSsWkSZPo3r07rq6uVFZWsmXLFs6dc76AUmtzd3cnOjoaDw8PPD096dmzJ2FhYXh5eREYGEhVVZV5st1bjRSREEIIIVpQjx49uP/++81FAFJTU9m7V37b2o2+XVn2l2SGqpss8G5FS0HG9/zvrBxSlatagXURCUecKf7QUtu5lcVMfZUXpyQS1uz0HUa6Qg5/s4L5q1t/7qX4+HjGjh2Lt7c3V65cYfv27WRkZCib3XAjRowwpxhaq6ys5J///Cd5eXk2y28V0gMlhBBCtKDS0lLKysro3Lkzhw4dYvfu3com4ka6VMGWtT9x8Mplwnx98fNxB1d33K0HNWi1VJUWkH04lU9e3MxLH5XSRkNebHqgHHGm56iltnMrKzu6i017j3HFIwR/X186uoFbB9Os1Qa6Gg2Vhbkc3b2B/523hA0HW7sP0qCwsBCdTkenTp1ITU29oRPmNuXMmTNcvHgRHx8fPD09cXNzw8XFBa1Wy88//0x5uc0s2beMG98DJYQQQgghhBA3CSkiIYQQQgghhBBOkgBKCCGEEEIIIZwkAZQQQgghhBBCOEkCKCGEEEIIIYRwkgRQQgghhBBCCOEkCaCEEEIIIYQQwkkSQAkhhBBCCCGEkySAEkIIIYQQQggnSQAlhBBCCCGEEE6SAEoIIYQQQgghnCQBlBBCCCGEEEI4SQIoIYQQQgghhHCSBFBCCCGEEEII4SQJoIQQQgghhBDCSRJACSGEEEIIIYSTJIASQgghhBBCCCdJACWEEEIIIYQQTpIASgghhBBCCCGcJAGUEEIIIYQQQjjJJSoqqkG5UNym+gYx54HuBJef4sv3S8lWrhdC8Nt5XbnnvhAAGuob2LmpmM+X5dM3wZcnX4giILgDAAWna3j5t1mKZ984z73Tg76/8APg+H8qeee5k8omLer1j2NRR3kpF5vt/a6Yj5ecVS62ETvIlydf6EZgJw+u1NTz2d/O8sPWUmUz0Uqs30NNpZ41fz1Lxq5yHniyC7+a2hk3dxdw8r0UQohbifRACYPBcaz/4AlmPDCCiU88weoNAxmqbCOEsFFfD5qqOgAa6g0BlRC3Ip22Hk2l8VxvMAROQghxu5IAqlnuTHx6MKs3/JadqXPJyHjO8kj7A6l7ZpKyLpkV84KUT2wsOZrFK5NJ2fYHMtYNVK69oRIfGEi0yvJvVdRApoy3biGEAKgoraVO33yg1FCvXOLYkDFBvPtNPB/uGmR+/NebMcpmN5UNfy9g1aLTNo/Cc1plM2Fl3NQwXnivF++mDOCPS3ooV7e5yjK9clEjDQ2GGwlCCHE7kQCqCeqHBrJ+51xefmIYA6KC8VW52zZwU6Hy9kcd05PEwV1t19kzMIHRCT1RB6jATbnyxkovqlAs0VCcqVgkhLC5+66vraeyrBaArANV1GgMd+gBKozLnRHTzwdvH9uvY3WUJ2ERVnc1bjKHf6jgh62lNo86vVxpN6Vfgi89+nfEx88dl3bw61xv1aNaq2ugtEgHQOG5K9TWGtbV1zU4FWgJIcStpB18RbdP6ulJfP7nJKJ9jQvqNJScziF92262bDY8Ug/lkVdQgfZWuKn61+18edwYRNVVkL1uM6/nKxsJIaw14GITNF2rmH4+uLi60NBgSQP0D3KnX6JhzJIQN5q+tl56EIUQwkgCKLuC+J9HB2KKnapObOWlh1Zy70MpzP5zBi8tMDzmztzI5ORVDB36Dsn/fUixjZuNhsXTV5GQ8A4Jg1fx6BKNsoEQQnH3Xck6bc/ZFL6EkQGEdPYA4HKFnsLzhotUlZcbvQZ0VLQWou2UXDT0OClZj/draIC6OidPdiGEuEVIAGXPzAQSgo1/V+ew6X8y2dJMb0xBM+uFELeeWm091Zftp+2Z0p2a0zveF++OhpzewnNXyMm8TIMxPovs4XVTp/GJW4fNeV5ay5Vqw7/1+gaKLzh3rgshxK1Cypjbs2AyGcnGMU2nt5Pw0LX0Lg1kfUYS0crFTqkg/a+rmP2FcrmaFTunkugLVB1i6ajtfAb0To5lzqODGRARjK/xWktbVcLpvZtZuKDIfjnyR5LY+UdLL1sjVttvmtXrPLGZhEeyINKfOc+MYGJCNMG+xnFjWg0luQdZtyqN1XsUm7Cj98NxPDt5MAO6+KNq9vrR0fFqCXNZ+d1YIgFObeS+//oQ1COZ/sSDjI2PJNDH0HOATkPZmcN8s/ZN1qUpNmFPzwnMnTGBxJgwyzYAXY2GslOH2fXdKtbsLrR5isncv3/H2AjQHPmQKS+kMuG515g+IhIfN6Ayn12fvcKS7wph8JMs+v0E4sM8oE6H5tRWljy7gnTlBs3CiJ80ncfuSyQmxAcP0zg9nYayC8dJ/fpTVvw7V/Gc28+QMUFM++9IvHzcKLuk48O3zpB1oAoUpcKdLe284P/1oVsvb+r0sO2rQs7nXeGRZyLw9HbjSnUdX/2/Anb885LyaXYNnxDM0HHBhEd74enthouLoYdAe6WehvoGvHwMb6qjMuaeXq7cNTaY/nf6ER7tiV+gOx6ehu1grMRWWqTjP3vK2fzZRa7UXF3Pg3VZbGeOj70y5gf3ljN+WmfuHB1IUCcVbu5Qp4fSS1p2f1PMv76w/7mx5unlypiHQrlrbBAhnVW4dzCkT2pr6ig6r2XvdyXNHnPTa7Eurz7ongB+OTmMrj08UXkZjrW2po4TRy7zzZqLnDpu6dn/9Qw14x8JM5cCvxrNlXT39HJl/LTO/GJ4AEGhHnioDPdK9bUNVJTWcjyjik0fF1B2qelxetOf68rwCSG4uNieM/beF0f7oqRSqRg7dixxcXG4ublx8eJFtm7dypkzZ5RNhRCi3XILCAh4VbnwtjeiH7/r7W/420OD/qNcDirbNKszU37XnUDlYqdoKfjhAN81KuLgy4TfxhGuAnQX+fGTIkavepzXHo6ja5A31jUu3FXehPSMZ0JSDdkbLtKogyyuO7+9qzMOYxPdRX78JI8jyuWNWL3OqrN8W9GJle9M5pe9g/E2/mgD4O6Bd6euJI6MIOzkcfY4/K304dlVj/PapH6EB3jirqjbYZ+j49UShjDh0Rj8ATT5bK8axFsLnuCemCC8zBEG4OaBV3Ak8XcNp9Ppb0k7b7UJG2FMeO4d3pidRGyYv+02ALcOHnQMjaT/0F8xpkctP+7OQplMOeT+R4nxA48rxeT0nMzcMZF4mQ61yp+oHmqKfwziyVceJT7YuH1XNzyCexHfo5iNu+0EQeoJzPvfF3hyVC86dfTAzbpv2s0Dr4Bweg1JYnxvOLzrGGVWq283507VsPmLQlI+vsDW9UU2d99/2FpKyscXSPn4Aof2KwuzNJYwMoC7fhmEh8oVTaWebRsvkfljBQkjA/EL7ICbuys11XX8Z0+58qk21FFezH6tO6MfCCU4zIMOHq7moMfFBdw7uNDBw/KmXrqgtXvBmzg6kN/8VyQR3b3w8XXHvYNlOwBu7i509HenZ1xHBg71p+CM1mGalz2jf90J3wDDPFlnc6qbPUaduqgYdE8AXj5u6PUN5GRe5jdPR5I4KhAfX3dcjS/J1RV8fN3pHe9HqNqDg/scb7f3QF9mvRLN4KQgfP3dcXUzvEDDcXLFP7gD/RP9iOnXkezDVVypth8kml6LXt/A0Z8qmTCtC/dP70KnLh7m42baZliEJ/0S/LiYf4UiY4pmnzt86RnXEVfXqw+g9PoGjvxYwbncGuUqhvwyiFmvRDNwaAAd/d1tAjRXNxe8O7rRrZc3g8cEUV1Vz9mcapvnWzv8QwUpnxjOZ+vzpfiCjq3ri0j5+AKbP79odz8cGTJkCHfeeScdOnTAxcUFX19f/P39OXz4sLKpEEK0WxJA2ePfiUkj1HgDdAijz13FnNxU2jgIaZKOThGVFOac4aTpccWXHmHehtUlWWzZddyyTvE4mFbEkUYX4dYBVBVu9yfxqz7G7VWXkHf4AGmHzlLWIZjwAEOvhntQV7p3TGPjD7ZbwltLmEsp+db/7yVXIiP9cecaAyi3jowdPYBIbwAtJblH+fHHbPIqXAkJ80flCrj706dvLQfXFVCg3BQwbeXj/G6QMXhFQ0HGLj5duZNNGafR+QQT2dnHsH8ABWksXbKFb3ceZ3+6loJKy3ZajlUA5RbE8KHxqL0AdJSdOcrBAz+TX+VGUIg/Hq6Amz8xPcM59s1+Gt8HD+PBN97hd3eHYepz0pXlc+LYQY79fJpL1W54+/rj1QHAjY4RgxjT9wrrd9hOxmoKoKiGyL5RdHLTkJ+RQYFHGJ283cDLHS91f+KjvUCTT/pPxQR0DcID8PJxo2DjLk7bbDGRuW/PJamrcdJTXSFZu79jw8Z/sSunDA+fTnQK9sINN7zU8Qy3s0/i2gz7VTC94v1wdYWLZ6/w5fLz6PUN9BzQkfBoL/NF+A9bS9E7KJ2ujvLi9wui6B7rg4uLoSrapQs6sg9f5nR2NZfL9bi5u6DydMXFeLHuKICKjPFiwF3+uLi4UF6s48LZK2Qfvkz+yRrKCmvx8HQx92z5BXYgNFxFxq4yh/umdD0BVJ2+nq49vVFHeYJxvNix9EounL1CR393VJ6uuLpCWKQnDfWQk3lZuTnUUV488XxXInt44+ICNZo6DuwtZ9uGS5w6rsHb1w1f/w64ubsQGq4iItqLH/7d+DhhHUDV1hMW6UmfO3xxdQPdlXpOn6gm++Bl6usa8PXvgKur4bPn7eNG2nbD7Qcvb1f0+gbO513hXG4N53JrcO/ggq+/4RvuwtkrHE2rNK+zfpzNqSbrQFWjHqSRySFMmR1OQIjhG6ZWV0/+yRp+PlRF0Xktbu4uePm44eLqgqeXGz0HdORyRV2TQVRLu+OOOwgPD7dZptfrSU933DcuhBDtjaTw2aXi5XWzmBhj1f1RlceWj75j+Rqt3Qt/p1x3aqBVCp+ZloKdXzJvnm2q3pyPZjEjzsfwj9ytJDzsRPeMdVrftaTwmWgL2PG3tTy/wbJIPT2Jz58xpQwWsePpT3lemeo2OIGU90egBkNa3rurmL3GtknvZ5JZPb2nseeshNQFHzN3s22blmWVwmeiK2T/qhd48ztLiBQ2aRH/NyMewxEvZP9LM3hT2W3560V8+ZSpjYbc75bz5vJdikArkSffmceDfYzvHWWkL53Gq/+2tDCl8JmUpS1j2sKtMO1tvp4aaw7O0OWz9S+zWJYWz4urF3F3GEA+W++bxTLL0xm74DPmDjb2lVYeZs2C+azLsWoAxExdxFvTrF7fwhm8qXz/Wowbz9zvgdVLdNq5IzW867B3s/154b1e9OjfkYb6BnZuKubzZYbbNKN/3YlJv1Ob0/i+ePccqVtKlE8HYNYr0SSMDDQHBN9+dpEtaxuH79bphY5S+Lr39aFbT28O7S9vdHFu8uQLUQwZE4irm0uz+6Z0PSl8JnX6BvZvLeEf/3fOnELYva8PTzzf1bztsznV/O8zJxqlGD6zKMYYIBrGqH2xLJ+DqbZB3OTfh5M0qRMdPFzR1tTx1aoCtn/VOJ3P+rVgLKaQc+Qy6/9+3iZVz/r9KS3S8f/eOE3OkcbBHU6+R46ERaiY/Vp3ImMM+1R0XsuXy881en3jpoYxYVpnczpn3s/VvP3fjY9Vaxk2bBjDhw+nQwdDIA2Ql5fHmjWKL3shhGjHpIiEXVpe/9N6Uous5rbwjWbcM38gZc9v+XxJNBP7Wre/USo4suYjkhXBE8DynacwjMoAQkOZZru69WjPsukF2+AJoGDNdlLNXXhBhA+1XQ+Q+ECsMXgCTqTyup3f0+x3v2eneTvBqBNs17c6XT5b/zLDJngCKPxqGenmyDqMsEb7Fc+8+0wBCJSlreKZRsETQDofPreE/eYVgcT/8mHbJtZqsvhm4VbD35d1WF/yFv70IcvSAA5z2f61MKhnMyHBlGiq4fC6xsETQO7a+Xx1zJSqFUb8rx9UtGhJHfjlfSHcdw2PX8Yqt9V+xd/tT1iEoTel+nId2YfNn1iOZVSa59ZRebnRc4DpzLEVN9iP3gN9cXExBBY7/nnJbvDkrFPHNezcdMlh8ATw7acXKDam7XXwcCU03BLctLY6fQP7vy/l48VnbS74Tx3X8OO/y6jVGZYFh3nQf7BtCfghY4LoEdfRfKxSt5Q2Ci4A1v/9PKd/NvTIqLzcGHi3qUfcsfq6Bv6zp4xlfz5pEzwBHEuvQltjKLjg7eturrjY0u4ZH2LundNU6vn6wwK7r2/L2kL2fFdMXZ3h3mmXriruvtdUNan1paenk5mZSW1tLfX19RQUFLB7925lMyGEaNckgHIkv4C541fx2f6zVFlP8+IdTO9RD/LymrnsXDeYOfdarWtTWrK/+JgZ7ypHyBitKaJYuazVVZD+9/W87qBIxM+Fph9zdzzsVGfuHWAZkVVwMstBT5/WajsQojaHXG1Aw+HPXjEGJUqF5BZb3gsP5fXuHROINe1qXS6pq4xBj13pvLkjC1O44hEVj6NwpfCnT1mnXIghsPr+LSdSYu6LJcY0DKvwMOv+qVhvZd1+y3gsn8gBjFSsF1end3xHvDsaerlLCnUcTbPkoBae03LmhOEi3sUFusf64Gke6GYxYIg/vv6GN7CkUEfqv5zrCboehee06GsNgYqbuwv+QZaehNZUX9dA2vYyPl5iv4sxL1uDxvhl7entRkR3Y3qzkfVkxSWFOn7Y6vhY/XzoMnXGtMTQcE+iTKnSDhzaX8FHfzljtxen+KK2ReYKa07PAT64GcdznTym4acdjkcq7k4pNo9d8/R2I7qZ19eStFot33zzDYsWLeL111/ngw8+kAISQoibTuNfZGFFw9Jn1jPqiY9YvTOHEps0cXd8Y4Yx480/kLKyJ3Y6VFrZFSovNjX7+yEmJ7xjmNfJqVS8FlCVR6qdXqNWVdfUMWhhmpNkfHWNd/cTwggz/V2Yz0b70aHFZ/mW3imfzsTYjRPzObzY/sBrTc5++4GVwoPdO5v/1hQcxv7WjP5ZiHk0SGBn4m3XtqAr3D8rn37X8Lh/i3Jb7VdMPx/c3A3z6ZzKqm508X3iyGVzz0VAiAcDhwbYrMeYtmUa11Rw+kqLT3Tq6eVKwohA7hobZPNwc2/7nw6droHj/3E80PF4RhXVVYbvAzd3FwKCbSvQqKM8LWPACrRNHivrub58fN3obOwpdERTqW/0/plkHajiT5OP8uTIAzz9q0N2x55dr6g+3uZxT3X6BvJPNj2mqfCclksFltcfFNY6vWJCCHGravtfwZvR8VKWz0vh3uHvMPvdraSftu71UaFOSGbxhoE3IIi6tRRXW4IhdQ+rdD4bKgaoTSk1egpyixTr26eRXYLMf2uKc+2k7inlU2o+zToSeKft2pYSGWTpKrusuczI0SObeHS0jK8S18U6fU97pb5R2hfAqSwNVRXG1C8fV3ramVQ3sJOl96eq3HHa3dVQR3nx1EtRvJsygPc2D2T2a9HMnB9l82ivc1OZ0h7t8Qu0BFQ1mvpGQaH1I6SLh2FQE+Di6oJLO/+lDOnsgZe3YSdraxu4mO84ODSxnqfM+tgIIYRoXjv/WWh/0tdkMvuhlSS/mEK61R08VVQSC/5quUgWV2/LrpOYk2p6DeXl6bbrAYYuSGaoORUun8PrFQ3aqSCv9h96hA2bx7znmnrcbelFE9elZ/+OePtaUu/+s7txutXpn6vN5aFdXF3aJM1qyC+D+O/FMQwZE4SPn7tNCfObQX29czWREkYGNAoKrR+/fsJQwONm0cHDFbcO8nMuhBBtRb5xr1HB9znMTv6ITactdzyDExKYYdNKXJWUfXyaYRrf5E/i07NYvzKOGeP9GfdwNG+seozFyV2NFfj05H33PYuvrrb8DaO73iEQ1/v8m4on36yM5Ng1PL4Zp9xW+9Sjv2W8SliEJ+9sHMD7/xrY6NH3F76mjhBCOnuQMLJxGl9L6d7Xh1/P6EJQqCHYr9HUsX9LCa/P+pknRx6weRScdn7en7bkY5q4+zbTUG9IBb1WDfazD4UQQjggAdR10fD66v9Yek28/bGd3UJclUg1Q3tYVbxy8yE6YSxzFs7kjXkPMm5gqDF40lKwZz1zFzZOe2qvvi22jHvwCYlpvidHHYklu66Uwm9sV7eUy1ZzoOb/+z7uu8/Zh20pdOG8uMF+hEVaxtS4d3DB08vV7sPD0zKRrXdHN3rH28xhQK3OctFsCsiu1aBhATbB01f/r4AP/3LGXJGuvQuLUJlLc9fpG6gotU1ptD5We78rbhQUOnq01rilllRRWsuVasNdlg4dXOgc2XyKZbBVNcDykpZJ/xRCiNuFBFDXK/MyzWebC2dM/O+xJAZgGNu0fzfppyvQWh9crYaS4/tY/eJ7JP/R/kS87VZuqbmCHWGRPGh/gJdZWHKMZe6pwnx22a5uMRkFltFYQWGOav21tVr+/V0x313D4983wfy+veN98fG7+vQwF1cXYvrZlne8XGHpAQ9tYlzSyOQQonorS0Pa6tLN0xyElV3SsXNT47mP2rPoPj74+Bl6oK5U15FvTH80KTpv+TKxDh5uBVkHqqg2ViB0c3chskfT6Z7d+/qYx+DV6eHcqfbZoyiEEO2VBFDXSf2b7pZiB1Wl5NmutnWy1DI3U3Bw283NdFNQM+4O41wk1TlseSaD2Q+tYuhQYyXBhHdIGLqSe6ensfx75XNvAt9kcNIUQbnFkPh4oqKBtbHMHhZj/lfhz982XR3vOhzOOItp9I1Pn5E82Uxg1zbqePebGp6/hsfNMImudfreodSKRj0eysf36wrNxSaDQj2It5qX6NypGvO60HBP4hRzH2Hs8bpvWme8OzYdtHl4OteD9dDvwgnp4jhYu1EGDvU3v8aiAtuy8AD5J2vM80R16+nNnaNN85+1H6bS4gD+QR3slq535NTPGnO6Z/dYHwbd4zjd865fBhEYYihAoqnSk3XAMgdZa1OpVPzmN7/hpZde4uWXX+bJJ5+kU6dOymZCCNGuOf/tfBuZ+LCaRPPtf8d6PzyYlb+ONv+75ODBpsuFf1FAgWksi29/Ji70t1tpTn1vKFMGK5fe6kIJMWUnqfxRD1esvult5OuDlt6esGHzeHuGnSBKPZLZ/zeTRPPctof59rPWCp+Af39N+jnj3x4xPLj4bZ4c0XSCYcwvH2TCHcqlwhmxg3wNFd6AWp396ntK2YcvU33ZECV5d3Snd7ylGl/WgSo0xtLdvgHujJ4YanPRPeSXQfx2XjeCQj3Q1zY0OU7mUoHOfAEe2MmDURNtL2q79/XhT+/0ZOyUMDxU7eunY/Lvwxk41B8XF9Bp6zmwp7xRWfGM3WUUGUuX+/i5M3lWOPfcF2LTRumusUH0T2wclLaWi+e06LSG/Q4NV3H/9C7KJgDcfW8w3fva9ige+aHS3CPpG+DOgzPV9B5om/IJ8MCTXbh7XDCubi401DdwPKOSTEWw2ZoSEhLo3r07bm5uuLq6EhERQVJSkrKZEEK0ay5RUVGOf1FvUy9veI6JUaCtrqDkQilVZefJK7KM4vdVdyU6KhJ1gNWA5ZJDLJ25nc+aKWow56NZzIiz/PBpS86SnZ1HQTl4hKrp0yMadYCG9L+uYvYXNk8F1KzYOZVEXwyT1tpt45yJTyeQqLxODohm1N3GIg3VZ0ndlWfpMQMoPMVL7yvHAgxkfUYS0QBVh1jaxJxT01bO5NkEw93zvJR3mLzQeq2KN77+A+NMgWudlpL8AipNh11bQd7pCsPkstoSjqQVsG+btg3S+Oay8ruxhnQ6zWE+nDKfjcomRg++9SVPDjC8t/n/vo9ZS5UtEpn79/mMjbCkD+nK8snNzaWwEnzCYujRM5JA82oNh1f/F/MVc0/N/ft3jI0AyGer9VikXy/iy6fi8QE0Rz5kyguWPXX4HIDBc1n557FEWmU1aYrzuViQT36x4Y64R0gkkWGdCQvxwcNNw+EPpjC/iUl3hX2/nqFm/CNhuLm7UHZJx4dvnXHq7v+C/9eHbr0MaVknj17mrT+cMK+b9Uo0CSMDcXExVN6+ePYKZ3KqCYvwpGsPL9zcXai+XMfh/RXcOToQN3cXjv+nkneeO2n1P8CQMUE8MjcSH2N1wCs19Zz+WUN5SS3h0V6ou3ni5m7opdJp681B1N7vivl4yVmbbd0x1J+BwwIajcuKHeRLgLHnI/e4xhzQANTVNXBoXzkHUy0TZccO8uXJF7oR2MmDhgZDymLe8WpOHrtM6SUdXbp60v9OPyK6e+Pmbphs98dtZXz41mnzNqyNTA5h0u/CzT1V9XUNlJfUUpivNY8DCgjuQEgXDwI7eeDiApu/KOSfqxt/07z+cSzqKC9wcAyuhTrKiz+80d1cJr6hwTBn1blTNWhr6umk9qBLNy/c3OCzpfmNxmY9OFPN2CmhdPAwljTX1XM+7woX86/goXIlorsXndQq87i6c6dq+PvC021aFGTEiBEMGzYMd3fL72dVVRVff/01eXlN5nAIIUS70b5uI7YzKm9/1DHR9E4YxrjxI8yPoQOjbYKnqtztLHYieAJYviCFdHPVCVAFd2XA3Ybtjk7oaRuUtaIBoyyvx/wwBU8A3l0Zqlw/qqvtRlqUluWf78NcGd5NRXBUNNExxkffgYw27ccDD/L8X/5ASupvWf1n+7147VM6y177kP0FljQdj8BIYhMM8ywl9rMKnnSF7F/eOHhqFWnLeGXpt+RadYb4hEQSM+Bu8xxQdw+IITLMBw9TFthtVRWw5cT08zYHIcUXdE4FTwB5P1ebe4/CIjxt0vhSPrnI6exqGhrAxcUwlmnImCCi+xj+L01VHd99fpFiq/Qwe37cVsrh1HJzSqCnlyt97vBlyJggImMMgVhDA5w4fJkDe8qVT7fRrbcPd/2y8fxKpuAJIKavj+36XwbRTTFOS69vMPeKubgYelYG3O3Hg0+pmTk/ivumdaZbL0PwVKurJ3VLKZ8vdRzI7EopZuMHBeYCE65uLgSFehD7C1/zfsT+wpdOahXuHQyvt66u7UrUFZyuYeuXhWgqDW+Ci4uhJ2rQPQHcNTaIHv07GgJcB/XlN64qYM+3JeZerA4erkT19mbImCAG3RNAaLgheGpoMPRstnXwBHD8+HFKSqx+BAEPDw98fRv3lgkhRHslAZQdR3buI/14HnlFGrTVWrTKi0WtFm15EdkZW1k66x1GPXyIL50IngDIL2D2vctY/PUh8soV29ZqqSrIYseq9bx+jT1LN7OColKKL1st0GoNx79ai9Zqkl0zVTADHvotyxY0PTi+XSn4ljefmsX81Vs5fE6Dzvqatk6Hpjifw1s+ZP7TM3jzuzYInowKd6/gmSnPsOKbdLIKFfsFoNOhKczl8I51LHvhv5jfSlUBb2Wxg3zp0tUycP9UVvPpeyanjmvQXjFcFHv7utGzvyWNr+B0De+/nEvqlhKqyvU0NBgukK9U13HkxwqW/s9Jtqx17lz68C9n+OqD85zPq0Ffa4hcTNs6/XM1a945w//OPWEeS9Taco5c5m/P57L5i4uc/rmaqnK9eb8wHsfKMj3pO8v42/O5fLzkTKPUPaWdmy7x+u9/ZsfXl7iYf8UcbGB8rbor9RSd1/Lj1lLeeymXbz65aPP81rYrpZilf84lY1c5lyv01NfZvg/5uTWkfHyhUe+TyRfv5rP0f3LJ2F1m9/knj15mzTtnWDz3RJsHTwCXLl1i37591NS0/f8thBAtRVL4RPsQqWbFR1PNVfjyNn/M3AUVdlP0Eh+IZcZTY0kMNfbW1eXw2eAUGmXMCSGEaJfmzJljLh5RWVnJV199xdmzjnsPhRCiPZEeKNEuJM4aYQyegPxUFjsIngDSv85i9ms/Wta7hdL7Yds2Qggh2qfg4GDc3CxVIcvKyiR4EkLcVCSAEu3C0OhQ899VhQWk26xtTgUF65TLhBBCtDcqlYrhw4cTEGC4Y1ZbW8vx48eVzYQQol2TAEq0C8WVlmpcvupIhtqsVfLh2afjLMUj8vPYYttACCFEO+Hn50f//v257777mD17NgMGDMDV1ZX6+nqOHz/OTz/9pHyKEEK0azIGSrQPjySx848DMddhqi4h+9BRfs4+S3qeMbgKUzPsjp4kDuxJsKGiM9RVkLpsFXNvw6IbQghxMxgwYADjx49HpbJMwFxbW8vBgwf517/+ZdNWCCFuBhJAiXZj3J+T+Z8HemKchqZ5VXlseX8jL21QrhBCCNFemAIoNzc3rly5wunTp0lLS+PcOdMs3kIIcXORAEq0L32DmPPEEEb164raX4VKZT0vlh5ttYaS03kc2Z/B8pWOC00IIYQQQgjRGiSAEkIIIYQQQggnSREJIYQQQgghhHCSBFBCCCGEEEII4SQJoIQQQgghhBDCSRJACSGEEEIIIYSTJIASQgghhBBCCCdJACWEEEIIIYQQTpIASgghhBBCCCGcJAGUEEIIIYQQQjhJAighhBBCCCGEcJIEUEIIIYQQQgjhJAmghBBCCCGEEMJJEkAJIYQQQgghhJMkgBJCCCGEEEIIJ0kAJYQQQgghhBBOkgBKCCGEEEIIIZwkAZQQQgghhBBCOEkCKCGEEEIIIYRwkgRQQgghhBBCCOEkt4CAgFeVC4UQQojW1KNHD6ZOnYqvry95eXnK1eI63HHHHUyePBkvLy/OnDmjXC2EEOI6uURFRTUoFwohxC2tbxBzHuhOcPkpvny/lGzl+pvJI0ns/ONAfJXLTaoOsXTUdj5TLr+BevTowYQJE/D390ev17N371727NmjbCauQZ8+fRg/fjy+vr5otVr27t1LamqqspkQQojrICl8Qojby+A41n/wBDMeGMHEJ55g9YaBDFW2Ea2mU6dOjBkzBn9/fwBKSkrIyspSNhPXKC8vj+LiYgBUKhXDhg0jISFB2UwIIcR1kB6oZrkz8elfMHFULNFd/PFVuVtW1WnRaq9QcqGI8xn7mL2k1PqJNwkV0/48hNEJ0UR3cefn91cx+wtlG9GexU+azQOD4+kRFQa5nzLthY3KJsJK4l8eY8WYUKslJaQu+Ji5m60WtaHE6XFMG96HPjFqyF7PvbMKlE2aFqlidJwnHtbLegzlf6bHGnql2lEPlEqlYsqUKURHR+Pi4kJhYSFfffUVly5dUjYV16FTp05MmjSJsLAwACoqKti0aZOkSgohRAuRHqgmqB8ayPqdc3n5iWEMiAq2DZ4A3FSovP1Rx/QkcXBX23U3jWCG3ptgfH3KdeJmEJMwisR+kQT6eNheRAu70osqFEs0FGcqFrWh3ncPZujArgT7ul/b+5evZcfmCrZYP4q1ylbtwogRI4iKisLFxYWamhrS0tIkeGoFly5dYtu2bVRWVgLg7+/PPffcg0olX/JCCNESJIByQD09ic//nES0aWBBnYaS0zmkb9vNls2GR+qhPPIKKtC2z2sVIYQ9f93Ol8eNQVRdBdnrNvN6vrKRaGmxsbEMGDAAV1dX6uvrOXToEAcPHlQ2Ey3k5MmT/PTTT9TW1gIQERHBXXfdpWwmhBDiGkgAZVcQ//OoZVB21YmtvPTQSu59KIXZf87gpQWGx9yZG5mcvIqhQ98h+b8PKbYhhGifNCyevoqEhHdIGLyKR5dolA1EK0hMTMTHxweAixcvsnv3bmUT0cJSU1M5deoUAB06dGDAgAFEREQomwkhhLhKEkDZMzOBhGDj39U5bPqfTLY0c4e6oJn1Qghxu0pMTCQ8PBwAnU7HoUOH0ErXfZs4dOgQGo3hJoG/vz9xcXHKJkIIIa6SFJGwZ8FkMpKNY5pObyfhoWvpXVLxxtd/YFyk4V/azI0MfaK5AbxdWb1nMgO8AfRkr1vGo0uUbYz6hvLyM8MY1ltNsGLwkrZaC7oKCg7uZvK8szbrpq2cybMJhupXV82JY5E4PYHZDw2kd5g/KjfjQq2GknNZbP88lcUpesUzDF7e8BwTo6AqYy2jZhUwZeGDzL43Gl83oDyPLSs38tIGYHhPVvzpXhLVKqjTU5W9lZemZ9E2RXpjmPBfTzIhoQdhgT54mF6fToemLJfDO75l1We7KFQ8y+zZlXz3S8MJoTnyIVMcFnt4kEVfPkm8D0A+W++bxTLTql8v4sun4jHcx79aim21NKvPTd7X7zD5TVAnqJkzK4mhsUGWMYTaCvL+s5sPl+Q0cWNCzYqdU0n0tS2C0Ds5ljmPDmZAhGXMnraqhNN7N7NwQZH9cuQtVuZ7IOszkogGOLGZhEeyINKfOc+MYGJCNMG+ptenoST3IOtWpbFaWZm7uX1p0lk2JazndeVie6z/n7Z8fQ488sgj9OzZE4AzZ87w8ccfK5s4tGjRIuLj49HpdHz++eds2LCBBx54gF/+8peo1Wo6dOhAXV0dFRUVpKWlsXr1aqqrq5WbsRESEsIjjzzCHXfcQWBgIB06dABjcFdUVMT+/ftZv3693e2Y9ufs2bPMnj2bp556ijFjxtCxY0cuX77Mtm3b+OCDD4iLi+PJJ5+ke/fuABQUFLBq1SoyMjKUmzSLi4tj0qRJ9OnTh44dO+Li4kJdXR2VlZUcPHiQ9evXc/as7Xe6Mx566CH69esHxqqHa9eupaSkRNmsSaNHjyYhIQEvLy9KSkrYs2cPR44cUTYTQojbgvRANSc0lBnKZU7Rsny/JWBS9b2D543BlEMz+9Db2/h3XR7pDoKncX9OZueax4wXNY0HBau8VagCQomODlKuaj2RQbyxbhYrnhnBALVV8ASg8iE4JoEpC57m+3e70ttqlZJvYDBDF0xm7nhj8AQQEM24p0YwMVLNigXJhuAJwM0d377jWfDX1n+dYffNY+WX7zJ7XDyRIVbBE4CHBz5hsdw9dR4rV7/Kg2qrdbcrNxg6L5nPV05l3MBQ2wIsKn+i707mjVVJTGvuM2Hmw7OrZvL5gvEMjbEteKLyDab3+MdYva4Ny5F7qFDfG8fna2YyY1RPS3CB8XzvO4w5b03m5eHWT7qJtODr69GjB126dAFAr9dz8uRJZROnuLq64u3tzWuvvcYTTzxBt27dzIGPm5sbQUFBjBs3jhdffBFvb9MXaWMPPPAA//d//8e9995LaGioeRsAHh4eREREMHnyZP72t781Wf7b29ub3//+94wfP56OHTsC0LFjR8aMGcO4ceOYNWsWPXv2xM3NDTc3NyIjI5k2bZrDfXvqqadYsGABiYmJ+Pr64uLiAsbXFhgYyOjRo3nrrbcYP3688qnNys7OpqamBgA/Pz/69OmjbNKk/v37m4MngODgYO6++26Cg02pGkIIcXtxCwgIeFW58Lbn34lJI9R4A3QIo89dxZzcVIrDm+UOVOXDiMk9CXEFXH1xd0lj435lK4s5//UrEsMMFyraIzv4XYqyWhio/5jMew/3NOwbQHkR2UcPknEoj5M5ZzhbUQs6cPfyQHX5DP/vy4s2z1cF1eJeco6TOWeMj2LcwtUEdgDQkrc/lbRM0zrF4+hpdqQbfoRt+fDy6ieY0N3T8E9tEUe2fs8nn6byr+MXUXUMIqyTN+644h3Zj7HxZ/hkc5XNFkZMuZs+AYCmnu7x3Qlz15C3/yfyVWrCfFzBG7y79iaxpzdU5ZG6t5jA7sGoAO+OOs5+dpZruyxrXtikRbzz5BDCTBftujLyfz7KwaM5nC6pwc3DH39vQ0Tl1jGcQSP7c+Wr7TSa2WbIBB6NMfT+1RYeZP32Ri2MYkmaPIjOHgCV5H7xLWmmVV7+hFBJQd5pThsflzqoCfcz/P+6c+nszcgxr7N9/MzRHw6Ta/U/tagR/fhdb8Prq1dFcN+w7obztE5Lyc+H2JOeQ2Gtr/FcALw7c8egcrZ8VYzt2QDgy4TfxhGuAnRVuN2fxK/6GM/66hLyDh8g7dBZyjoEEx5gqF3nHtSV7h3T2PiD7Zbw1hLmUkq+9bl8yZXISH/Dfugu8uMneTR/L70zU37XnUAAt46MHT2ASG8ALSW5R/nxx2zyKlwJCfNH5Qq4+9Onby0H1xVgLkxuZ18KO3Sha4Dxc386g237cxp/9nLOcDInl4M7y+33sinFdee3d3VGRRu/PjsGDRpE9+7dcXFxobKyktTUVKqqGr/jjiQlJdG5c2caGhqIiIige/fuuLq6UlVVxeHDh8nNzcXb2xtvb29cXFwICQnBzc2NQ4ca95Y/9thj/OY3vzEHMdXV1Zw8eZLMzEwuXbqEp6cnXl5euLi44OfnR//+/cnLy6Ow0NKvbNqf2tpaIiMj8fLy4sSJE2g0Gvz9/XFzc8PX15eYmBiuXLnCkSNHCAgIoEOHDnh4eJCfn9+oF2n69OkkJyfj6elJQ0MDZ86cYdOmTezevZvq6mqCg4NRqVR4enrSt29fKisryc11/pNcUVFBnz598PX1xc3NjdraWo4ePaps5lC/fv2Ijo7G1dVyz7WhoYG8vDzKy8tt2gohxO1AUvjsUvHyullMjLG661qVx5aPvmP5Gm2TFwtKM1bNYs5AY8JV/m5mP5BBurIRANGs3vOgMX2vgvS/2puPyTotUE/B5o+ZtaDiqvanMatUKYf/b9Mm/vW3vDzceCeyPJPlz2xl9XHbNr1njmXlrDhj6lIRO/74Kc9bpf+YUvhMSvZ8xL1/LIVZ40mdGWu4EATQnmXTC+t5fY+KxSl/YLQaII9NCRudS226ag+yaO2TxPsZ/qU59S3L31rBLsVBT5zxNvMmxZpT68rSljFt4VbbRi2RwmfHg299yZMDDP9z09ttZdapr0baogw+/NNum/PB9lwoIXXhx8xNsaw3sD4vTbQU7PySefNsU/XmfDSLGXHGI5+7lYSHnahJfr0pbibaAnb8bS3Pb7AsUk9P4vNnTGl6Rex4+lOeN0fAjVmn1ZpSWK9be3p906YRExMDxkle16xZo2zSJFPKnElDQwPHjh3j/fffNwciXbt25X/+53+IijJ8iWRlZfGnP/3J/ByA+Ph4/vu//5tOnTrR0NBATk4OK1euJDvbNiSdPXs2Y8eOxcPDg4aGBn766ScWLlxoXq/cn5ycHObPn09SUhK//e1v8fQ03EjS6XR8/fXXrFmzhrfffpvY2Fhqa2tZt24da9euNT9/+PDhzJkzB19fX+rq6tizZw/Lly+3SR/s3bs3zzzzjPn1HT9+nFdeecVuiqEjycnJ3HHHHQCUlpbyxRdfOJ3GFxcXx69+9StzDxRAYWEh69evd3obQghxK5EUPru0vP6n9aQWWY3X8Y1m3DN/IGXPb/l8STQT+1q3d2x1Shbmn5fIWCYPtl1v9sc4Y/AElOSwxW4Q051oc3pYAenXHTy1gMhYpgw1pXFUkL66cfAEkL1qK58eMlU7CyXxkSby3KozWfdH46TElVp0VqsK9m7m9T0AWqrMK6zz6VpW/PMTzMETZems+q/GwRNA+uo/sWSf5S514ICxPGzT4vajLUpjxe9tgyeM58K/Tpg+W8H0GenMmLwKjqz5iGRF8ASwfOcpSw9WaCjTbFe3Hu1ZNr1gG1wAFKzZTqq5uzqI8DbLK2xhLfD6VCoV/v6G97ehoYHi4mJlk6vS0NDA4cOHee2112x6cc6ePUtaWhp6veG8CgoKolevXlbPhHvvvZeQkBAwXvzbC54AVqxYQVpaGg0NDbi4uNCrVy+HqXw1NTX8+9//prq6Go1GQ319vXndyZMn2bDBcPB0OsOXlYuLC+7utvMJjh49Gl9fQzian5/P2rVrGwVG2dnZbN682ZyGFxUVxd13323TpjklJSXmkuYqleqq0u8yMzPJyMgw//8lJSXs379fgichxG1LAihH8guYO34Vn+0/S1Wd1XLvYHqPepCX18xl57rBzLnXap09KYf42fwbE0r8o/bH6zybYLnvW3LsEJts1ppUUGn+XVWTuPDaSgm0qMk96W2KXwoyWW038DNYvSPHfKHrG92dcYr1JgV7d7NauRBDYPXPP7dlyel4JvQJM/8rd98KFH1KNtLf2kWWKcPRqyvxkxQNbiflh1jx+3185iDv9bOTRea/g7va9HnYoSX7i4+Z8a6D935NEdd3WX4tKkj/+3pjMN/Yz4Wm9Ft3PAzDY24yLfP61Go1Hh6GFEtToYfrcebMGf7+9783CjAAzp07Zw5U3N3dbXpLwsPD6dWrFy4uLtTX13Pw4EG7wZPJzp07zfvq6+tL377275jl5uby3XffKRdTU1PDrl277O6ntV69etG1q6HXtq6ujoMHD3L+/HllMzDuU1GR4XPj6elpLsrhrLKyMnOA6eHhQUBAgLJJk3bs2MHixYt57bXXeO+996SAhBDitiYBVJM0LH1mPaOe+IjVO3MosfktdMc3Zhgz3vwDKSt7NjF4vYLPMixdFsG945hos97Qi5NoThcsIH2do4uMAlKzLRcu6vGz2LkhiZenq2iiP6dVTetl+Z+r8vMcpCcafVFiudANDiXRdq3RWdJftF/euOr4UfuBVatJIMxwwxooJD/FYX09ozXkm+MCHzpHWYKv203VySyHwRNAwc9Fll6j4OBmeo2uUHnRfvVGg0NMTnjHMK+TU6lqLaAqj9Sry0S7ubTQ6+vYsSMqlSEBt66u7qrGPtlz4sSJRuOHnBEdHW0u9KDVajlx4oSyiY20tDTz2B53d3dzz5U1vV7vcBzRpUuX7AZWSlFRUfj5Gbq4tVptkwU2qqurzfvk6uqKWn113/o1NTXmAMrV1dU8J5cQQoirJwGUM46XsnxeCvcOf4fZ724l/bT1nXAV6oRkFm9wXAEsfeUhsk29WMGxTJxpu179m1hLL87pLJY3MZ7gszc326QW+kYNZOIzfyAlbRbfr0vijaeDmqxy19KiQyw/wlVVWsaN92/iobKMZWrFtLsWMzqSINNuai6Sayd1Tym/wnJudAxxdEYI9pbYKRwhbjWmSnI3WufOnc2BXHV1tU1RCEese8vsBVAtISwszFwFUKvV4ufnx+jRox0+rCsGurndBN+hQghxi5IA6iqlr8lk9kMrSX4xhfQCS0+JKirJcTnt/CxSj5va+tB7qG3K0pODTf/Wk512qOlxTcbUwuU782xTC918CI4ZyLgnnuDztJmsXxjapoEUgHrMTN5Y2NRj2A3rKbsmfh4Yko9Ei8sH+/2MQrQ8Ly8vmwpy7VFgYCC///3vee655xw+HKUSCiGEaFvt+xelHSv4PofZyR+x6bSlNyg4IcHhnFHLU0+YLxht5oSKHMgAU/W5JuZ+sqVh9byNjBq8jNc/2k16bokimPInevxjrG6iV0w4wfqYXos66/IXwsb4jphqcwjR2vR6PQ0N115wtq7uer8MhBBC3EokgLouGl5f/R9LlT1vf8JtG1isyiDD1NAtkvjfGP5MnBVrLhuszTzEUlN7p+jZ9H4Gsx/+mFGDlzH3/a0cUfSK/c+bjSfabUlVOksAmZdiHIfi1GN9K5Udb0HfFGKsBQg+nYlptvssjMggS0pjaeG3NmuFla5+mGsPVF1uVFlP3BouX75srvxmmhD2RigsLDTvh7e3N2FhTY9P9Pb2NhdZaGhocCrl71rU1NSYK/eVlJQwf/587rvvPqce8+fPV26uSV5eXuYKgHV1dTJ/kxBCXAcJoK5X5mUnU5FKrYpJuNN78EDUqJjY13RVXsGRHVc/ONpCT+pHmcxIfo/VmZZxOOoetqV8W1rqWXOIQchVDmpuSyqViqSkJH73u9/x6KOP0qNHD2UTO3IprTT9HUZkctMXXagfJKaL6R+F5O+zXW2tQxOly8ImJdDjBo7v9vPz4/777+f3v/89kyZNIiIiQtnkuk3sG2oeD1dVkN908RFx06qoqDBXxnNzc7thhQsKCwvNFfFUKlWjEudKd955p7nMt1ar5cyZM8omLSI/P9+8X15eXnTq1EnZpMUEBgaaA6ja2lo0GgdVLYUQQjRLAqjrpP5Nd8u4nqpS8mxX20hPybGMb4rqyZPD4xhgSuVzOPfT1VueZzU3R7MDjQsoMDf3J8SZuMJK+v6z5h4437gEnjW9nnZm8uTJDB06lC5dutCjRw/uv/9+J4Kob8mwKhgSc+dMB5UDDcbOHEqMuaR7Ft8eVDQovmye08ojMBLLVJxWBs/ltWnx5gl5nbGx0BLE+gRF0kyY16Tg4GAeeeQRBg0aROfOnenfvz8TJkxo2Qu7yGgmDjTNQVPCkc1Njvq75X1WYClW4BsSenONE2xGSUkJlZWGuxAuLi4tex5dhWPHjpnLg7u6uhIfH28uH27P8OHDzcFecXExBw4cUDZpEZmZmea5lLy8vK56bqerERgYaC5CUV1dfdVB4YQJE5g/fz6vvPIKTz/9tBPfn0IIceuSAMqOiQ+rSXQiEOj98GBW/tpq/qaDB5suoZyWwT7zBKJdSfxTrPliyfHcT1YiVSQ2O4bYhzfusCotXmyZb8eR9LOWgCt6+Fhm2P0/3JnysJ0iGSk/ss80DkzVk2mrxvJsM3Nj9U5WM8XRhMKtoG/fvqjVapuKYL6+vsTH2w1hbGz852HMyTthdzPvnSftBFFhjJzzLjMHm9KTNBzesobDilYcK6TM9HdYPA9Psg11wkbMY+WfxxJ5tZUrjly0bDdiKHOnxtiuN4q5fwJjlQsV+vTp02iCzU6dOjl1rJwS6c8bf0s2TxqtPZHG/6YoG91mMi5Y0oCjEnh5pu1Eqya9Hw5tPAXCTeDSpUvm8UdBQUFERzc371fr+PHHH7ly5QoAXbp04emnn24URHl7ezN37lx+8Ytf4OLigl6vZ//+/Q7nZrpe1dXVpKeno9frcXFxISEhgfnz5zdZ9a9r167cf//9ysXN6tLF3D1OYWEhWq1zuRMYv0P79u1rDsBCQkIYNWqUubKhEELcblyioqKufWTtLerlDc8xMQq01RWUXCilquw8eUWWQcS+6q5ER0WiDrC60Ck5xNKZ25uc+waAmWNJnRVnVc4boIAtT6/lpSbKlwPwSBI7/zgQX62WqpICissryDtdYezVcCM4qhd9YkLxNW1cm8emP27k9ea2O3wwKX+1qpBXp6EgO4efT1egwwd132iiI4Pxzd9OwkOHbJ8LMHwg699KItr8ovRUFRVQcPas+bh5hKqJVoeiDvNH5VZB+l9XMduqx810zOEsm6zHR5leM1CVsZZRsyy9FQ6fozBgwADGjx/f6Mc+NzeXzz5rMuQFIPHZlcz/ZaSlIp+ujPyck+QWasAvjJiYGCIDLVGP5siH/NcLGy2Bl1k8c/++iLGmjLg6DfnHDpNbDIExscR2CzT8H3VllF0JJNAHIJ+t981imc12lBJ5cfWr3G0Vj2kKczmZk0+ZDnzCYugRFUmgT/PbGjVqFEOHDrUpkdzQ0MCBAwf49ttmxnQtmExGsvGCtE5LyeksDh85RcbBUirxZ8DwniQOHki0r7F9+SGWPuHoM6Nmxc6pJPpimNRVcb5cjYlPJ5Co7JYLiGbU3V0Nn8Pqs6TuyrMtq154ipfet/TsGQxkfUaSYcxi1SGWNjHn1LSVM3k2wR+MYwMnL1S2sObD4pRZjLbqeqoqyOHn4wWU6MBXHU2fGDXBvgV2z/P2/vr69u3LhAkT8PLyor6+nh9++IFt27Ypmzm0aNEicwC/detWli2zfwaPHj2a2bNn4+3tTUlJCe+88w6HD9vexnjuuecYMWKE+fw29cRcuHCBjh070qNHDwIDA3FxcaGhoYHDhw/z5ptv2kyIa9ofvV7Phg0b+PTTT0Hx/589e5bZs2c3+xyMQduLL75IfHy8+SZPTU0NhYWFnD17Fr1ej7u7O+Hh4YSGhtKxY0fy8/Nttt+cuLg4fvWrX+Hl5YVOp+Pf//43GRkZymYOxcXFcd9999l8h2q1WrZs2cKhQ3Z+E4QQ4hYnPVBNUHn7o46JpnfCMMaNH2F+DB0YbRM8VeVuZ7EzwRPAqqMcUU6A08zcT42oVPiqo4nuO5DR5v0aRmJfq+CpKo8tf3MieALYk8b/puRZxnK5+aA2bzuBAVHB+DaVCbjnEHMXbiXb/Lrc8Q3tanPcRif0JFrtj8q0nTYsanX+/PlGE3jq9XrOnTtns8yR9KWv8OG+QnP6HR6BRPZLZOTokYxMiLUKnnQU7lvhIHgCOMyy1VvJN23IzYfIAXczcvTdxJuCJ10h+//+HDvtb8CBdN78u9V2MQRN8cNGMnL0SBL7RRqDsebl5+dTU1Njs+zKlStXfwfeTUVwzEBGP/Agzy+cyRsLJzNljCV40hZksPwZJz8z12nAKMtn1/wwBRcA3l0Zqlw/ynF6V8vT8Pzb28mz6hDwVfckcYzp+6Yrwb72e6W4CV7f8ePHKSoy9IS7urrSvXv3Rjcz2sqKFSv44YcfzFX1vL29iY2NZfTo0dx5550EBQXh4uJCXV0dqampjYKn1lBdXc3f/vY3/vOf/5j3y8vLi6ioKIYPH87o0aMZPnw4MTEx+Pr64uLiYi484axevXrh5eUFQFVVFXl5TSWbN3bixAkKCmxTbd3d3W9YURAhhLjRJICy48jOfaQfzyOvSIO2WotWebGv1aItLyI7YytLZ73DqIcP8aXTF4IFbMm0GqPkzNxPJrlZpB+y7FcjWi1VBVns+OgjHh21kZc2KBs4lrpwI5NfXM+O4yVUaS2V9UCPtqqEvIytLF7g+E5jwfeZPDpqGYvXZXCkoIJG2SFaLVUFOaRv3sjrs1Yxe51ifSsqKSlh7969lJaW0tDQQG1tLYcPH2bXrl3Kpg4U8u1bM5j1wodsPZKPpsa2PLlOU0b+ka18+MIsZrz1rYPgyShtGbOeX8GunDI0VpvRacrI3b+OJU/P4M3vCim7fJUDvNOWMevpJazbn0uZ9YYBdBrKzhxm68olTfY+AZw8eZL9+/dz+fJlGhoaqKmpIS0tjYMHlQO6mlFn73OjoST3EJvefY/JybtZfVyx/na25xCT/3979/didZ3HcfzlGZ0jFjMHpzOZ5TaV2AzdLDFROcQizI17sxAJC/1gWfZmvWn/gcWQQGFvoqu9CAPZRVwvFsIugkqshGjJUQTH2rENK2GcJDzmwZPjmb3IGfIb1NdqzhzHx+Py+/1852JA8Dnfz/f9+f0r2XPovzl/sfCPZ/739rd/f+/t081icnJyYQpevV7PI498fyNsJzSbzezatSu7d+/OsWPH0mw2F7YXzs3N5eLFizl69Gh2796dXbt2LXo8zfvyyy+zY8eOvPTSSzl27FgajcZ1o9OvXr2aRqORycnJvPrqq9mxY8d1z/+Q++67L/fee29y7edMTk4ufHdVVqvVyttvv52vvlrYLAxwS7OFbwn87uU/5K+br31n8iNbZeCm8Z0tfMXtltzaqtVqnn766WzY8O3HpdPT0zlw4MAN/0eeG/fUU0/loYceSn6B3/tzzz238A1bq9XK66+/nhMnThSXASx73kB12qO/zjOPzn+kP5v/HXpPPAHLWqvVysTExML20Hq9nrExx3wvttHR0YVpeVeuXLlu6t9PMT8GPdfO+Cpu6wO4VQioDvvL87/JffPfAZ3/MP/YWdzrBrD8TExM5NSpU2m326lUKhkZGcno6GhxGb+Qer2exx57bOF7s08++SRHjhwpLittfHw869atS65tBfz4449/VowB3MwEVMeszB///qc8s2n+L3gX8p9/vvfjo8sBlok33nhjYSDJ6tWr88QTTzhPaBFUq9Vs3bp14UiC6enpvPXWW8VlP6harWZkZCTj4+PZvn17Hn/88YUx5mfOnMnhw4eLjwDcMgTUolmb7TtH8+LO0bz48m/z2qHns/3a2N9kNv97bV/+vLfwCMAy1mq18s477+TChW8PD+7r68v4+PiSHbC7HFWr1Tz55JMLgyMajUbefPPNzMzMFJf+oPXr12fr1q0ZGxtLvV5PpVJJu93OyZMns3///hs6RwpguRFQi+ZX2bIwUngk6+fPvrl6KR/tfyXbdt7glDWAZWBqaioHDx5Mo9FIktRqtQwPDxeX8RMNDw/nnnvuSaVSyeXLl/Puu+9mamqquKy0drudZrOZ06dPZ9++fTlw4IB4Am55pvAtmu8cSpmkdfF8zn70YQ68fCL/Mr6Z5cgUPm7Agw8+mPHx8Zw8eTKHDh0q3uZnGB0dzebNm/P+++/ngw8+KN4G4GcSUAAAACXZwgcAAFCSgAIAAChJQAEAAJQkoAAAAEoSUAAAACUJKAAAgJIEFAAAQEkCCgAAoCQBBQAAUJKAAgAAKElAAQAAlCSgAAAAShJQAAAAJQkoAACAkgQUAABASQIKAACgJAEFAABQkoACAAAoSUABAACUtGJoaGiueLHTtmzZkrGxsfT09GR2djaXLl3K6dOnc/jw4TQajeJyAACAJdF1b6BWrlyZ/v7+PPzww3n22WczNDRUXAIAALAkemq12gvFi5126dKlfPHFFzlz5kySpK+vL5VKJWvWrEl/f3+OHz9efAQAAKDjuiKgms1mzp07l88//zwnTpzIqlWrcvfdd6dSqWT16tVpNBo5d+5c8TEAAICO6rotfEly5MiRzMzMJEl6e3tTr9eLSwAAADquKwOq1Wql2WwmSXp6enL77bcXlwAAAHRcVwZUEtP3AACArtO1AQUAANBtBBQAAEBJAgoAAKAkAQUAAFBS1wZUu93O3NxckqRWqxVvAwAAdFzXBtT09HSuXLmSJBkcHMzIyEhxCQAAQEf11Gq1F4oXu8H58+ezYcOG1Gq19Pb2ZuPGjbnrrruyZs2arF27NpcvX06r1So+BgAAsGi6NqCuXr2aTz/9NLfddlv6+vpSrVYzODiYTZs25YEHHsjMzEymp6eLjwEAACyart3ClyR9fX3p7+9Pb29vVqxYUbwNAADQUSuGhoa+ndTQZQYGBrJt27bceeedabfb+eyzzzIxMZFTp07ZugcAACyJrn0DNTw8nIGBgeTaQIl9+/bl+PHj4gkAAFgyXRtQAwMDWblyZXJtoIRwAgAAllrXBtR3zY8zBwAAWEo3RUABAAB0AwEFAABQkoACAAAoSUABAACUJKAAAABKElAAAAAldW1A3XHHHUmSubm5zM7OFm8DAAB0XFcG1OjoaAYHB5Mk33zzTc6ePVtcAgAA0HErhoaG5ooXO61er2fdunWpVqvZuHFj7r///qxatSpJcvbs2ezduzetVqv4GAAAQEd1RUBt2bIlY2Nj6enpue76hQsXcvDgwUxNTV13HQAAYCl03Ra+drudr7/+OkePHs2ePXvEEwAA0DW64g0UAADAzaDr3kABAAB0KwEFAABQkoACAAAoSUABAACUJKAAAABKElAAAAAlCSgAAICSBBQAAEBJAgoAAKAkAQUAAFCSgAIAAChJQAEAAJQkoAAAAEoSUAAAACUJKAAAgJL+D1s3MefDR0aqAAAAAElFTkSuQmCC;" vertex="1" parent="1">
          <mxGeometry x="3298.004240056818" y="-87.99958362926148" width="848" height="319" as="geometry" />
        </mxCell>
        <mxCell id="K7wMDh7OH1HqQqZJAVD5-429" value="&lt;b&gt;&lt;u&gt;Compilação&amp;nbsp;&lt;/u&gt;&lt;/b&gt;&lt;div&gt;&lt;b&gt;&lt;u&gt;&lt;br&gt;&lt;/u&gt;&lt;/b&gt;&lt;div&gt;Transformar linguagem de&amp;nbsp;&lt;/div&gt;&lt;div&gt;programação em linguagem&lt;/div&gt;&lt;div&gt;de máquina.&lt;/div&gt;&lt;/div&gt;" style="text;strokeColor=none;align=center;fillColor=none;html=1;verticalAlign=middle;whiteSpace=wrap;rounded=0;fontSize=60;fontFamily=Architects Daughter;fontSource=https%3A%2F%2Ffonts.googleapis.com%2Fcss%3Ffamily%3DArchitects%2BDaughter;" vertex="1" parent="1">
          <mxGeometry x="4632" y="-216.5" width="978" height="403" as="geometry" />
        </mxCell>
        <mxCell id="K7wMDh7OH1HqQqZJAVD5-436" style="edgeStyle=none;curved=1;rounded=0;sketch=1;hachureGap=4;jiggle=2;curveFitting=1;orthogonalLoop=1;jettySize=auto;html=1;exitX=0.5;exitY=1;exitDx=0;exitDy=0;entryX=0;entryY=0.5;entryDx=0;entryDy=0;fontFamily=Architects Daughter;fontSource=https%3A%2F%2Ffonts.googleapis.com%2Fcss%3Ffamily%3DArchitects%2BDaughter;fontSize=16;startSize=14;endArrow=open;endSize=14;sourcePerimeterSpacing=8;targetPerimeterSpacing=8;" edge="1" parent="1" source="K7wMDh7OH1HqQqZJAVD5-431" target="K7wMDh7OH1HqQqZJAVD5-434">
          <mxGeometry relative="1" as="geometry">
            <Array as="points">
              <mxPoint x="7110" y="1404" />
            </Array>
          </mxGeometry>
        </mxCell>
        <UserObject label="0: ldc           #2                  // Carrega a constante &quot;Adalberto&quot; no topo da pilha&#xa;2: astore_1                           // Armazena o valor no slot 1 da variável local (args ocupa o slot 0)&#xa;3: getstatic     #3                  // Obtém a referência para System.out&#xa;6: aload_1                             // Carrega o valor da variável local (nome) no topo da pilha&#xa;7: invokevirtual #4                  // Chama o método println na referência de System.out&#xa;10: return                             // Retorna do método" id="K7wMDh7OH1HqQqZJAVD5-431">
          <mxCell style="text;whiteSpace=wrap;fontFamily=Architects Daughter;fontSource=https%3A%2F%2Ffonts.googleapis.com%2Fcss%3Ffamily%3DArchitects%2BDaughter;fontSize=50;" vertex="1" parent="1">
            <mxGeometry x="5968" y="-451" width="2378" height="363" as="geometry" />
          </mxCell>
        </UserObject>
        <UserObject label="&lt;p data-end=&quot;195&quot; data-start=&quot;0&quot;&gt;No bytecode Java, cada instrução é composta por um &lt;strong data-end=&quot;61&quot; data-start=&quot;51&quot;&gt;opcode&lt;/strong&gt; de 1 byte, podendo ser seguido por operandos cujo número e tamanho variam conforme a instrução. &lt;span data-state=&quot;closed&quot; class=&quot;&quot;&gt;&lt;/span&gt;&lt;/p&gt;&lt;div class=&quot;relative inline-flex items-center&quot;&gt;&lt;br&gt;&lt;/div&gt;&lt;p data-end=&quot;236&quot; data-start=&quot;197&quot;&gt;&lt;strong data-end=&quot;236&quot; data-start=&quot;197&quot;&gt;Tamanho das Instruções Específicas:&lt;/strong&gt;&lt;/p&gt;&lt;ul data-end=&quot;1073&quot; data-start=&quot;238&quot;&gt;&lt;br&gt;&lt;li data-end=&quot;386&quot; data-start=&quot;238&quot;&gt;&lt;p data-end=&quot;386&quot; data-start=&quot;240&quot;&gt;&lt;strong data-end=&quot;249&quot; data-start=&quot;240&quot;&gt;&lt;code data-end=&quot;247&quot; data-start=&quot;242&quot;&gt;ldc&lt;/code&gt;&lt;/strong&gt;: Carrega uma constante do pool de constantes. Utiliza 1 byte para o opcode e 1 byte para o índice da constante, totalizando &lt;strong data-end=&quot;385&quot; data-start=&quot;374&quot;&gt;2 bytes&lt;/strong&gt;.&lt;/p&gt;&lt;/li&gt;&lt;br&gt;&lt;li data-end=&quot;514&quot; data-start=&quot;388&quot;&gt;&lt;p data-end=&quot;514&quot; data-start=&quot;390&quot;&gt;&lt;strong data-end=&quot;404&quot; data-start=&quot;390&quot;&gt;&lt;code data-end=&quot;402&quot; data-start=&quot;392&quot;&gt;astore_1&lt;/code&gt;&lt;/strong&gt;: Armazena uma referência no índice 1 das variáveis locais. É uma instrução de 1 byte, totalizando &lt;strong data-end=&quot;513&quot; data-start=&quot;503&quot;&gt;1 byte&lt;/strong&gt;.&lt;/p&gt;&lt;/li&gt;&lt;/ul&gt;&lt;div&gt;&lt;br&gt;&lt;/div&gt;&lt;ul data-end=&quot;1073&quot; data-start=&quot;238&quot;&gt;&lt;li data-end=&quot;514&quot; data-start=&quot;388&quot;&gt;&lt;p data-end=&quot;514&quot; data-start=&quot;390&quot;&gt;&lt;strong style=&quot;background-color: transparent; color: light-dark(rgb(0, 0, 0), rgb(255, 255, 255));&quot; data-end=&quot;533&quot; data-start=&quot;518&quot;&gt;&lt;code data-end=&quot;531&quot; data-start=&quot;520&quot;&gt;getstatic&lt;/code&gt;&lt;/strong&gt;&lt;span style=&quot;background-color: transparent; color: light-dark(rgb(0, 0, 0), rgb(255, 255, 255));&quot;&gt;: Recupera um campo estático de uma classe. Consiste em 1 byte de opcode e 2 bytes para o índice do campo no pool de constantes, totalizando &lt;/span&gt;&lt;strong style=&quot;background-color: transparent; color: light-dark(rgb(0, 0, 0), rgb(255, 255, 255));&quot; data-end=&quot;685&quot; data-start=&quot;674&quot;&gt;3 bytes&lt;/strong&gt;&lt;span style=&quot;background-color: transparent; color: light-dark(rgb(0, 0, 0), rgb(255, 255, 255));&quot;&gt;.&lt;/span&gt;&lt;/p&gt;&lt;/li&gt;&lt;br&gt;&lt;li data-end=&quot;820&quot; data-start=&quot;688&quot;&gt;&lt;p data-end=&quot;820&quot; data-start=&quot;690&quot;&gt;&lt;strong data-end=&quot;703&quot; data-start=&quot;690&quot;&gt;&lt;code data-end=&quot;701&quot; data-start=&quot;692&quot;&gt;aload_1&lt;/code&gt;&lt;/strong&gt;: Carrega a referência da variável local no índice 1 para a pilha. É uma instrução de 1 byte, totalizando &lt;strong data-end=&quot;819&quot; data-start=&quot;809&quot;&gt;1 byte&lt;/strong&gt;.&lt;/p&gt;&lt;/li&gt;&lt;br&gt;&lt;li data-end=&quot;980&quot; data-start=&quot;822&quot;&gt;&lt;p data-end=&quot;980&quot; data-start=&quot;824&quot;&gt;&lt;strong data-end=&quot;843&quot; data-start=&quot;824&quot;&gt;&lt;code data-end=&quot;841&quot; data-start=&quot;826&quot;&gt;invokevirtual&lt;/code&gt;&lt;/strong&gt;: Chama um método de instância. Inclui 1 byte de opcode e 2 bytes para o índice do método no pool de constantes, totalizando &lt;strong data-end=&quot;979&quot; data-start=&quot;968&quot;&gt;3 bytes&lt;/strong&gt;.&lt;/p&gt;&lt;/li&gt;&lt;br&gt;&lt;li data-end=&quot;1073&quot; data-start=&quot;982&quot;&gt;&lt;p data-end=&quot;1073&quot; data-start=&quot;984&quot;&gt;&lt;strong data-end=&quot;996&quot; data-start=&quot;984&quot;&gt;&lt;code data-end=&quot;994&quot; data-start=&quot;986&quot;&gt;return&lt;/code&gt;&lt;/strong&gt;: Finaliza o método atual. É uma instrução de 1 byte, totalizando &lt;strong data-end=&quot;1072&quot; data-start=&quot;1062&quot;&gt;1 byte&lt;/strong&gt;.&lt;/p&gt;&lt;/li&gt;&lt;/ul&gt;&lt;br&gt;&lt;p data-end=&quot;1099&quot; data-start=&quot;1075&quot;&gt;&lt;strong data-end=&quot;1099&quot; data-start=&quot;1075&quot;&gt;Resumo dos Tamanhos:&lt;/strong&gt;&lt;/p&gt;&lt;ul data-end=&quot;1227&quot; data-start=&quot;1101&quot;&gt;&lt;br&gt;&lt;li data-end=&quot;1117&quot; data-start=&quot;1101&quot;&gt;&lt;code data-end=&quot;1108&quot; data-start=&quot;1103&quot;&gt;ldc&lt;/code&gt;: 2 bytes&lt;/li&gt;&lt;br&gt;&lt;li data-end=&quot;1138&quot; data-start=&quot;1118&quot;&gt;&lt;code data-end=&quot;1130&quot; data-start=&quot;1120&quot;&gt;astore_1&lt;/code&gt;: 1 byte&lt;/li&gt;&lt;br&gt;&lt;li data-end=&quot;1161&quot; data-start=&quot;1139&quot;&gt;&lt;code data-end=&quot;1152&quot; data-start=&quot;1141&quot;&gt;getstatic&lt;/code&gt;: 3 bytes&lt;/li&gt;&lt;br&gt;&lt;li data-end=&quot;1181&quot; data-start=&quot;1162&quot;&gt;&lt;code data-end=&quot;1173&quot; data-start=&quot;1164&quot;&gt;aload_1&lt;/code&gt;: 1 byte&lt;/li&gt;&lt;br&gt;&lt;li data-end=&quot;1208&quot; data-start=&quot;1182&quot;&gt;&lt;code data-end=&quot;1199&quot; data-start=&quot;1184&quot;&gt;invokevirtual&lt;/code&gt;: 3 bytes&lt;/li&gt;&lt;br&gt;&lt;li data-end=&quot;1227&quot; data-start=&quot;1209&quot;&gt;&lt;code data-end=&quot;1219&quot; data-start=&quot;1211&quot;&gt;return&lt;/code&gt;: 1 byte&lt;/li&gt;&lt;br&gt;&lt;/ul&gt;&lt;br&gt;&lt;p data-end=&quot;1353&quot; data-start=&quot;1229&quot;&gt;&lt;br&gt;&lt;/p&gt;" id="K7wMDh7OH1HqQqZJAVD5-434">
          <mxCell style="text;whiteSpace=wrap;html=1;fontFamily=Architects Daughter;fontSource=https%3A%2F%2Ffonts.googleapis.com%2Fcss%3Ffamily%3DArchitects%2BDaughter;fontSize=50;" vertex="1" parent="1">
            <mxGeometry x="8973" y="200" width="4043.44" height="2704.89" as="geometry" />
          </mxCell>
        </UserObject>
      </root>
    </mxGraphModel>
  </diagram>
</mxfile>
